<svg xmlns="http://www.w3.org/2000/svg" xmlns:xlink="http://www.w3.org/1999/xlink" xmlns:lucid="lucid" width="1392.28" height="1450"><g transform="translate(1489.009917418509 673)" lucid:page-tab-id="0_0"><path d="M-1258.23-438.5a6 6 0 0 1 6-6h788a6 6 0 0 1 6 6v1188a6 6 0 0 1-6 6h-788a6 6 0 0 1-6-6z" stroke="#5e5e5e" stroke-width="3" fill="#fff"/><use xlink:href="#a" transform="matrix(1,0,0,1,-1250.2268927271512,-436.49796413825845) translate(293.625 15.6)"/><use xlink:href="#b" transform="matrix(1,0,0,1,-1250.2268927271512,-436.49796413825845) translate(424.475 15.6)"/><use xlink:href="#c" transform="matrix(1,0,0,1,-1250.2268927271512,-436.49796413825845) translate(462.425 15.6)"/><path d="M-1398.48-66.94c0 10.9-8.84 19.74-19.75 19.74-10.9 0-19.75-8.84-19.75-19.74 0-10.9 8.85-19.75 19.75-19.75s19.75 8.85 19.75 19.76z" stroke="#5e5e5e" stroke-width="3" fill="#fff"/><path d="M-1418.23-47.2V2.1a20.7 20.7 0 0 0 3.2 11.07l36.8 58.14m-40-63.2l-40 63.2m0-98.74h80" stroke="#5e5e5e" stroke-width="3" fill="none"/><path d="M-1458.23-80.7a6 6 0 0 1 6-6h68a6 6 0 0 1 6 6v168a6 6 0 0 1-6 6h-68a6 6 0 0 1-6-6z" fill="none"/><use xlink:href="#d" transform="matrix(1,0,0,1,-1538.2268927271512,71.30456612623746) translate(96.370987654321 17.955555555555552)"/><path d="M-1398.48 355.25c0 10.9-8.84 19.75-19.75 19.75-10.9 0-19.75-8.84-19.75-19.75 0-10.9 8.85-19.75 19.75-19.75s19.75 8.84 19.75 19.75z" stroke="#5e5e5e" stroke-width="3" fill="#fff"/><path d="M-1418.23 375v49.3a20.7 20.7 0 0 0 3.2 11.07l36.8 58.13m-40-63.2l-40 63.2m0-98.75h80" stroke="#5e5e5e" stroke-width="3" fill="none"/><path d="M-1458.23 341.5a6 6 0 0 1 6-6h68a6 6 0 0 1 6 6v168a6 6 0 0 1-6 6h-68a6 6 0 0 1-6-6z" fill="none"/><use xlink:href="#e" transform="matrix(1,0,0,1,-1538.2268927271512,493.50203586174155) translate(70.21697530864199 17.955555555555552)"/><path d="M-878.23-135.6c0 33.14-35.8 60-80 60-44.18 0-80-26.86-80-60 0-33.13 35.82-60 80-60 44.2 0 80 26.87 80 60z" stroke="#5e5e5e" stroke-width="3" fill="#fff"/><use xlink:href="#f" transform="matrix(1,0,0,1,-1038.2268927271512,-195.59669900601048) translate(55.53 63.15)"/><use xlink:href="#g" transform="matrix(1,0,0,1,-1038.2268927271512,-195.59669900601048) translate(90.53 63.15)"/><path d="M-998.23-304.5c0 33.14-35.8 60-80 60-44.18 0-80-26.86-80-60 0-33.13 35.82-60 80-60 44.2 0 80 26.87 80 60z" stroke="#5e5e5e" stroke-width="3" fill="#fff"/><use xlink:href="#h" transform="matrix(1,0,0,1,-1158.2268927271512,-364.49796413825845) translate(48.055 63.15)"/><use xlink:href="#i" transform="matrix(1,0,0,1,-1158.2268927271512,-364.49796413825845) translate(89.005 63.15)"/><path d="M-1034.6-111.52L-1415.5-7.76l-.53-1.93 380.9-103.75z" stroke="#5e5e5e" stroke-width=".05" fill="#5e5e5e"/><path d="M-1415.47-7.77l-3.9 1.06-.5-1.94 3.87-1.06z" stroke="#5e5e5e" stroke-width=".05" fill="#5e5e5e"/><path d="M-1033.43-111.84l-1.2.33-.52-1.94.78-.22z" fill="#5e5e5e"/><path d="M-1033.4-111.82l-1.24.34-.54-1.98.82-.22zm-1.72-1.6l.5 1.88 1.15-.3-.9-1.8z" stroke="#5e5e5e" stroke-width=".05" fill="#5e5e5e"/><path d="M-538.23-311.5c0 29.27-26.86 53-60 53-33.13 0-60-23.73-60-53s26.87-53 60-53c33.14 0 60 23.73 60 53z" stroke="#5e5e5e" stroke-width="3" fill="#fff"/><use xlink:href="#j" transform="matrix(1,0,0,1,-658.2268927271512,-364.49796413825845) translate(37.555 44.2125)"/><use xlink:href="#k" transform="matrix(1,0,0,1,-658.2268927271512,-364.49796413825845) translate(32.504999999999995 65.8125)"/><path d="M-538.23-133.1c0 29.28-31.34 53-70 53s-70-23.72-70-53c0-29.26 31.34-53 70-53s70 23.74 70 53z" stroke="#5e5e5e" stroke-width="3" fill="#fff"/><use xlink:href="#l" transform="matrix(1,0,0,1,-678.2268927271512,-186.08590162365076) translate(24.129999999999992 44.2125)"/><use xlink:href="#m" transform="matrix(1,0,0,1,-678.2268927271512,-186.08590162365076) translate(77.98 44.2125)"/><use xlink:href="#n" transform="matrix(1,0,0,1,-678.2268927271512,-186.08590162365076) translate(51.08 65.8125)"/><path d="M-867.24-149.1l-7.98 6.18-1.22-1.58 7.97-6.2zm23.92-18.6l-15.95 12.4-1.22-1.58 15.96-12.4zm23.93-18.56l-15.94 12.38-1.23-1.58 15.95-12.38zm23.93-18.58l-15.95 12.38-1.23-1.57 15.95-12.4zm7.97-6.2l-1.22-1.57 4.68-3.65h3.26zm39.88-30.95l-5.34 4.15h-3.26l7.37-5.72zm23.92-18.56l-15.95 12.38-1.23-1.58 15.95-12.38zm23.92-18.58l-15.95 12.4-1.22-1.6L-701-280.7zm23.93-18.57l-15.95 12.37-1.23-1.58 15.95-12.4zm15.95-12.4l-7.98 6.2-1.23-1.58 7.97-6.2z" stroke="#5e5e5e" stroke-width=".05" fill="#5e5e5e"/><path d="M-659.73-311.5l.05 1.23-.25.2-1.22-1.6 1.48-1.14z" fill="#5e5e5e"/><path d="M-659.7-311.5l.04 1.25-.27.2-1.26-1.6 1.55-1.2zm-1.42-.15l1.2 1.54.2-.18-.03-1.22.05-1.25zM-867.43-162.03l-6.73 17.02 18.16-2.3.25 1.98-21.5 2.72 7.96-20.17z" stroke="#5e5e5e" stroke-width=".05" fill="#5e5e5e"/><use xlink:href="#o" transform="matrix(1,0,0,1,-818.4713873911186,-237.84733157213446) translate(0 14.4)"/><path d="M-681.52-134.6v2l-10.8-.1v-2zm-21.58-.17v2l-21.6-.15.02-2zm-129.48-.92v2l-21.6-.15.02-2zm-32.37-.23v2l-10.8-.07v-2z" stroke="#5e5e5e" stroke-width=".05" fill="#5e5e5e"/><path d="M-875.7-136l-.03 2h-1.05l.05-1.58v-.43z" fill="#5e5e5e"/><path d="M-875.7-136.03v2.05h-1.1l.05-1.6v-.45zm-1 .45l-.05 1.54h1v-1.94h-.95zM-679.7-133.6l-18.76 10.9-1-1.72 15.82-9.2-15.7-9.44 1.04-1.7z" stroke="#5e5e5e" stroke-width=".05" fill="#5e5e5e"/><use xlink:href="#p" transform="matrix(1,0,0,1,-827.2269812466722,-145.10543241581001) translate(0 14.4)"/><path d="M-1393.5-29.6l262.32-227M-1393.48-29.62l-3.05 2.64" stroke="#5e5e5e" stroke-width="2" fill="none"/><path d="M-1130.47-257.28l.96.57-1.04.88-1.3-1.5.56-.5zM-1013.8-181.3l-1.93.52-3.2-11.63 1.92-.54zm-11.1-40.27h-2.08l-1.58-5.73 1.93-.54zm-4.94-17.9l-1.93.53-3.2-11.63 1.92-.53z" stroke="#5e5e5e" stroke-width=".05" fill="#5e5e5e"/><path d="M-1018.9-237.52l-1.38 1.44-13.17-12.72-4.8 17.67-1.93-.52 5.68-20.94z" stroke="#5e5e5e" stroke-width=".05" fill="#5e5e5e"/><path d="M-1013.62-180.68l-1.45 1-.3.22-.36-1.34 1.93-.54z" fill="#5e5e5e"/><path d="M-1013.6-180.67l-1.46 1-.32.25-.38-1.4 1.97-.55zm-2.1-.12l.35 1.3.26-.2 1.45-1-.17-.6z" stroke="#5e5e5e" stroke-width=".05" fill="#5e5e5e"/><use xlink:href="#q" transform="matrix(1,0,0,1,-1072.410776224673,-221.56691898029504) translate(0 14.4)"/><path d="M-998.23 33.3c0 33.14-35.8 60-80 60-44.18 0-80-26.86-80-60 0-33.13 35.82-60 80-60 44.2 0 80 26.87 80 60z" stroke="#5e5e5e" stroke-width="3" fill="#fff"/><use xlink:href="#r" transform="matrix(1,0,0,1,-1158.2268927271512,-26.69543387376254) translate(21.104999999999997 63.15)"/><use xlink:href="#s" transform="matrix(1,0,0,1,-1158.2268927271512,-26.69543387376254) translate(85.00500000000001 63.15)"/><path d="M-1067.15-31.36l-9.8 3.74-.7-1.87 9.78-3.73zm9.78-3.74l-.72-1.87 8.84-3.38h5.6zm78.24-29.93l-8.06 3.08h-5.6l12.96-4.95zm19.56-7.48l-9.78 3.73-.7-1.87 9.77-3.74z" stroke="#5e5e5e" stroke-width=".05" fill="#5e5e5e"/><path d="M-1077.12-28.16l-1.1-.04h-.94l-2.1.1 3.63-1.4z" fill="#5e5e5e"/><path d="M-1077.08-28.14l-1.13-.03h-.96l-2.24.1 3.8-1.46zm-4.02 0l1.94-.08h.95l1.05.03-.5-1.26zM-958.23-74.1l-10.55 13.28v-1.13h-1.65l8.53-10.74-18.05-3.07.34-1.97z" stroke="#5e5e5e" stroke-width=".05" fill="#5e5e5e"/><use xlink:href="#q" transform="matrix(1,0,0,1,-1067.6768927271512,-61.94606643988651) translate(0 14.4)"/><path d="M-1416-8.57l36.4-33.04M-1415.97-8.6l-2.98 2.72M-1379.6-41.6l.75-.68M-1415.74-7.73l255.6 33.76M-1415.7-7.73l-4-.53" stroke="#5e5e5e" stroke-width="2" fill="none"/><path d="M-1159 25.18l-.32 1.97-1-.13.27-1.98z" stroke="#5e5e5e" stroke-width=".05" fill="#5e5e5e"/><path d="M-638.23 197.5c0 33.14-35.8 60-80 60-44.18 0-80-26.86-80-60 0-33.13 35.82-60 80-60 44.2 0 80 26.87 80 60z" stroke="#5e5e5e" stroke-width="3" fill="#fff"/><use xlink:href="#t" transform="matrix(1,0,0,1,-798.2268927271512,137.50203586174158) translate(16.62999999999999 63.15)"/><use xlink:href="#u" transform="matrix(1,0,0,1,-798.2268927271512,137.50203586174158) translate(53.62999999999999 63.15)"/><path d="M-756.93 142.07l-1.63 1.17-5.94-8.25 1.62-1.18zm-11.9-16.5l-1.6 1.17-11.9-16.5 1.62-1.17zm-17.82-24.75l-1.63 1.17-11.88-16.5 1.62-1.18zm-17.83-24.75l-1.63 1.17-11.9-16.5 1.63-1.17zm-17.84-24.75l-1.62 1.17-7.74-10.75h2.47zm-22.46-31.17h-2.46l-6.42-8.9 1.62-1.17zm-13.2-18.32L-859.6 3l-11.9-16.5 1.63-1.17zm-17.83-24.75l-1.63 1.17-11.9-16.5 1.63-1.17zm-17.84-24.75l-1.63 1.17-11.88-16.5 1.62-1.17zm-17.84-24.75l-1.62 1.17-5.94-8.25 1.62-1.17z" stroke="#5e5e5e" stroke-width=".05" fill="#5e5e5e"/><path d="M-756.2 143.08l-.42.15-1.48.65-.47-.66 1.62-1.17z" fill="#5e5e5e"/><path d="M-756.17 143.1l-.44.15-1.5.66-.5-.7 1.66-1.18zm-2.37.13l.45.62 1.48-.64.37-.13-.7-.98zM-899.42-72.87l-.8 1.83-16.78-7.33 1.65 18.23-2 .18-1.94-21.6z" stroke="#5e5e5e" stroke-width=".05" fill="#5e5e5e"/><use xlink:href="#q" transform="matrix(1,0,0,1,-887.6768927271512,20.152668427865546) translate(0 14.4)"/><path d="M-793.03 221.63l-.7 1.88-622.4-230.1.7-1.9z" stroke="#5e5e5e" stroke-width=".05" fill="#5e5e5e"/><path d="M-1415.42-8.48l-.7 1.88-3.77-1.4.7-1.88z" stroke="#5e5e5e" stroke-width=".05" fill="#5e5e5e"/><path d="M-791.62 224.3l-2.13-.8.63-1.7z" fill="#5e5e5e"/><path d="M-791.57 224.34l-2.2-.82.64-1.8zm-2.15-.85l2.04.74-1.44-2.4z" stroke="#5e5e5e" stroke-width=".05" fill="#5e5e5e"/><path d="M-918.23 235.5c0 33.14-35.8 60-80 60-44.18 0-80-26.86-80-60 0-33.13 35.82-60 80-60 44.2 0 80 26.87 80 60z" stroke="#5e5e5e" stroke-width="3" fill="#fff"/><use xlink:href="#v" transform="matrix(1,0,0,1,-1078.2268927271512,175.50203586174158) translate(21.604999999999997 63.15)"/><use xlink:href="#w" transform="matrix(1,0,0,1,-1078.2268927271512,175.50203586174158) translate(49.555 63.15)"/><use xlink:href="#x" transform="matrix(1,0,0,1,-1078.2268927271512,175.50203586174158) translate(89.555 63.15)"/><path d="M-994.7 164.1l-2.3 9.18-1.95-.5 2.32-9.18zm6.98-27.56l-4.65 18.37-1.94-.48 4.64-18.37zm6.96-27.55l-4.64 18.36-1.94-.5 4.64-18.36zm6.97-27.57l-4.64 18.37-1.94-.5 4.65-18.36zm2.33-9.18l-1.94-.5 3.1-12.3h2.07zm11.6-45.92l-2.9 11.52h-2.07l3.04-12zm6.98-27.56l-4.64 18.37-1.94-.5 4.65-18.36zm6.97-27.55l-4.64 18.37-1.94-.5 4.63-18.37zm6.97-27.55l-4.65 18.36-1.95-.48 4.65-18.37zm4.64-18.37l-2.32 9.18-1.94-.5 2.32-9.17z" stroke="#5e5e5e" stroke-width=".05" fill="#5e5e5e"/><path d="M-997 173.25l-.2.78-1-.03h-.96l.2-1.24z" fill="#5e5e5e"/><path d="M-996.98 173.24l-.2.82-1.03-.03h-1l.24-1.3zm-2.15.74h.92l.98.03.18-.73-1.88-.48zM-928.7-55.9l-1.93.56-5.18-17.56-12.9 13-1.42-1.42 15.28-15.4z" stroke="#5e5e5e" stroke-width=".05" fill="#5e5e5e"/><use xlink:href="#q" transform="matrix(1,0,0,1,-1015.9852813796967,37.84566714154103) translate(0 14.4)"/><path d="M-1415.86-6.67l351.03 205.32M-1415.84-6.66l-3.48-2.03" stroke="#5e5e5e" stroke-width="2" fill="none"/><path d="M-1063.23 198.43l-1.46 1.46-.65-.4 1-1.72z" stroke="#5e5e5e" stroke-width=".05" fill="#5e5e5e"/><path d="M-1418.23 333V19.9" stroke="#5e5e5e" stroke-width="2" fill="none"/><path d="M-1417.23 334.12l-.92-.12-1.08.03v-1.05h2z" stroke="#5e5e5e" stroke-width=".05" fill="#5e5e5e"/><path d="M-1418.23 12.87l7.64 12.92-15.26-.02z" stroke="#5e5e5e" stroke-width="2" fill="#5e5e5e"/><path d="M-898.23 381.5c0 33.14-35.8 60-80 60-44.18 0-80-26.86-80-60 0-33.13 35.82-60 80-60 44.2 0 80 26.87 80 60z" stroke="#5e5e5e" stroke-width="3" fill="#fff"/><use xlink:href="#y" transform="matrix(1,0,0,1,-1058.2268927271512,321.50203586174155) translate(19.87479166666666 68.54166666666667)"/><use xlink:href="#z" transform="matrix(1,0,0,1,-1058.2268927271512,321.50203586174155) translate(92.38520833333335 68.54166666666667)"/><path d="M-1415.73 413.97l355.72-24.32M-1415.7 413.97l-4.02.27" stroke="#5e5e5e" stroke-width="2" fill="none"/><path d="M-1058.85 390.57l-1.12.08-.13-2 .93-.06z" stroke="#5e5e5e" stroke-width=".05" fill="#5e5e5e"/><path d="M-898.23 527.5c0 33.14-35.8 60-80 60-44.18 0-80-26.86-80-60 0-33.13 35.82-60 80-60 44.2 0 80 26.87 80 60z" stroke="#5e5e5e" stroke-width="3" fill="#fff"/><use xlink:href="#A" transform="matrix(1,0,0,1,-1058.2268927271512,467.50203586174155) translate(12.87999999999999 58.80166666666666)"/><use xlink:href="#z" transform="matrix(1,0,0,1,-1058.2268927271512,467.50203586174155) translate(56.129999999999995 83.80166666666666)"/><path d="M-1415.77 414.6l355.1 112.6M-1415.75 414.6l-3.84-1.2" stroke="#5e5e5e" stroke-width="2" fill="none"/><path d="M-1059.7 526.46l-.03 1.02v.43l.03.66-1.3-.4.6-1.92z" stroke="#5e5e5e" stroke-width=".05" fill="#5e5e5e"/><path d="M-157.73 323c0 16.85-13.65 30.5-30.5 30.5-16.84 0-30.5-13.65-30.5-30.5 0-16.84 13.66-30.5 30.5-30.5 16.85 0 30.5 13.66 30.5 30.5z" stroke="#5e5e5e" stroke-width="3" fill="#fff"/><path d="M-188.23 353.5v79.4a18.66 18.66 0 0 0 3.5 10.88l66.5 92.72m-70-97.6l-70 97.6m0-152.5h140" stroke="#5e5e5e" stroke-width="3" fill="none"/><path d="M-258.23 298.5a6 6 0 0 1 6-6h128a6 6 0 0 1 6 6v254a6 6 0 0 1-6 6h-128a6 6 0 0 1-6-6z" fill="none"/><use xlink:href="#B" transform="matrix(1,0,0,1,-338.22689272715115,536.5020358617415) translate(118.26604938271606 17.955555555555552)"/><path d="M-518.23 326.5c0 33.14-35.8 60-80 60-44.18 0-80-26.86-80-60 0-33.13 35.82-60 80-60 44.2 0 80 26.87 80 60z" stroke="#5e5e5e" stroke-width="3" fill="#fff"/><use xlink:href="#C" transform="matrix(1,0,0,1,-678.2268927271512,266.50203586174155) translate(27.53625 53.54166666666667)"/><use xlink:href="#D" transform="matrix(1,0,0,1,-678.2268927271512,266.50203586174155) translate(52.82791666666666 78.54166666666667)"/><path d="M-518.23 472.5c0 33.14-35.8 60-80 60-44.18 0-80-26.86-80-60 0-33.13 35.82-60 80-60 44.2 0 80 26.87 80 60z" stroke="#5e5e5e" stroke-width="3" fill="#fff"/><use xlink:href="#E" transform="matrix(1,0,0,1,-678.2268927271512,412.50203586174155) translate(59.114374999999995 53.54166666666667)"/><use xlink:href="#F" transform="matrix(1,0,0,1,-678.2268927271512,412.50203586174155) translate(23.21854166666666 78.54166666666667)"/><path d="M-190.7 413.66l-328.92-68.2M-190.73 413.66l3.94.82" stroke="#3a414a" stroke-width="2" fill="none"/><path d="M-519.4 344.48l-.4 1.95-1.2-.25.8-1.87zM-193.13-670.92l1.07.26 1 .42.95.57.82.72.72.83.57.94.43 1.02.26 1.06.07 1.06V290h-2v-953.96l-.06-.82-.17-.76-.3-.73-.4-.67-.52-.6-.6-.5-.66-.4-.72-.3-.76-.2-.83-.06H-1412.2l-.8.07-.77.18-.72.3-.66.4-.6.52-.5.6-.42.66-.3.73-.18.76-.07.82V-97.2h-2v-566.84l.1-1.06.24-1.06.43-1.02.58-.94.72-.83.84-.72.93-.57 1-.42 1.08-.26 1.05-.08H-194.2z" stroke="#3a414a" stroke-width=".05" fill="#3a414a"/><path d="M-187.23 291.08l-.97-.08-1.03.05v-1.07h2z" fill="#3a414a"/><path d="M-187.2 291.1l-1-.08-1.05.05v-1.12h2.05zm-2-1.1v1.02l1-.05.95.08V290z" stroke="#3a414a" stroke-width=".05" fill="#3a414a"/><path d="M-1418.23-90.16l-7.63-12.9h15.27z" fill="#3a414a"/><path d="M-1418.23-88.2l-9.4-15.87h18.8zm-5.88-13.87l5.87 9.94 5.9-9.94z" stroke="#3a414a" stroke-width=".05" fill="#3a414a"/><path d="M-190.72 414.55l-325.93 48.57M-190.74 414.55l3.98-.6" stroke="#3a414a" stroke-width="2" fill="none"/><path d="M-516.48 464.1l-1 .15-.15-.94-.24-1 1.1-.18z" stroke="#3a414a" stroke-width=".05" fill="#3a414a"/><path d="M-528.23 618.5c0 33.14-35.8 60-80 60-44.18 0-80-26.86-80-60 0-33.13 35.82-60 80-60 44.2 0 80 26.87 80 60z" stroke="#3a414a" stroke-width="2" fill="#fff"/><g><use xlink:href="#G" transform="matrix(1,0,0,1,-688.2268927271512,558.5020358617415) translate(46.40067901234568 51.70555555555555)"/><use xlink:href="#H" transform="matrix(1,0,0,1,-688.2268927271512,558.5020358617415) translate(33.93154320987655 78.63888888888889)"/></g><path d="M-190.62 415.36L-538.2 586.3M-190.65 415.37l3.62-1.78" stroke="#3a414a" stroke-width="2" fill="none"/><path d="M-537.72 587.17l-.73.36-1.16-1.47-.12-.13 1.12-.55z" stroke="#3a414a" stroke-width=".05" fill="#3a414a"/><defs><path fill="#333" d="M30-248c87 1 191-15 191 75 0 78-77 80-158 76V0H30v-248zm33 125c57 0 124 11 124-50 0-59-68-47-124-48v98" id="I"/><path fill="#333" d="M100-194c63 0 86 42 84 106H49c0 40 14 67 53 68 26 1 43-12 49-29l28 8c-11 28-37 45-77 45C44 4 14-33 15-96c1-61 26-98 85-98zm52 81c6-60-76-77-97-28-3 7-6 17-6 28h103" id="J"/><path fill="#333" d="M100-194c62-1 85 37 85 99 1 63-27 99-86 99S16-35 15-95c0-66 28-99 85-99zM99-20c44 1 53-31 53-75 0-43-8-75-51-75s-53 32-53 75 10 74 51 75" id="K"/><path fill="#333" d="M115-194c55 1 70 41 70 98S169 2 115 4C84 4 66-9 55-30l1 105H24l-1-265h31l2 30c10-21 28-34 59-34zm-8 174c40 0 45-34 45-75s-6-73-45-74c-42 0-51 32-51 76 0 43 10 73 51 73" id="L"/><path fill="#333" d="M24 0v-261h32V0H24" id="M"/><path fill="#333" d="M114-163C36-179 61-72 57 0H25l-1-190h30c1 12-1 29 2 39 6-27 23-49 58-41v29" id="N"/><path fill="#333" d="M127-220V0H93v-220H8v-28h204v28h-85" id="O"/><path fill="#333" d="M141-36C126-15 110 5 73 4 37 3 15-17 15-53c-1-64 63-63 125-63 3-35-9-54-41-54-24 1-41 7-42 31l-33-3c5-37 33-52 76-52 45 0 72 20 72 64v82c-1 20 7 32 28 27v20c-31 9-61-2-59-35zM48-53c0 20 12 33 32 33 41-3 63-29 60-74-43 2-92-5-92 41" id="P"/><path fill="#333" d="M135-143c-3-34-86-38-87 0 15 53 115 12 119 90S17 21 10-45l28-5c4 36 97 45 98 0-10-56-113-15-118-90-4-57 82-63 122-42 12 7 21 19 24 35" id="Q"/><path fill="#333" d="M143 0L79-87 56-68V0H24v-261h32v163l83-92h37l-77 82L181 0h-38" id="R"/><g id="a"><use transform="matrix(0.05,0,0,0.05,0,0)" xlink:href="#I"/><use transform="matrix(0.05,0,0,0.05,12,0)" xlink:href="#J"/><use transform="matrix(0.05,0,0,0.05,22,0)" xlink:href="#K"/><use transform="matrix(0.05,0,0,0.05,32,0)" xlink:href="#L"/><use transform="matrix(0.05,0,0,0.05,42,0)" xlink:href="#M"/><use transform="matrix(0.05,0,0,0.05,45.95,0)" xlink:href="#J"/><use transform="matrix(0.05,0,0,0.05,55.95,0)" xlink:href="#I"/><use transform="matrix(0.05,0,0,0.05,67.95,0)" xlink:href="#J"/><use transform="matrix(0.05,0,0,0.05,77.95,0)" xlink:href="#N"/><use transform="matrix(0.05,0,0,0.05,83.9,0)" xlink:href="#O"/><use transform="matrix(0.05,0,0,0.05,92.85000000000001,0)" xlink:href="#P"/><use transform="matrix(0.05,0,0,0.05,102.85000000000001,0)" xlink:href="#Q"/><use transform="matrix(0.05,0,0,0.05,111.85000000000001,0)" xlink:href="#R"/></g><path fill="#333" d="M206 0h-36l-40-164L89 0H53L-1-190h32L70-26l43-164h34l41 164 42-164h31" id="S"/><path fill="#333" d="M115-194c53 0 69 39 70 98 0 66-23 100-70 100C84 3 66-7 56-30L54 0H23l1-261h32v101c10-23 28-34 59-34zm-8 174c40 0 45-34 45-75 0-40-5-75-45-74-42 0-51 32-51 76 0 43 10 73 51 73" id="T"/><g id="b"><use transform="matrix(0.05,0,0,0.05,0,0)" xlink:href="#S"/><use transform="matrix(0.05,0,0,0.05,12.950000000000001,0)" xlink:href="#J"/><use transform="matrix(0.05,0,0,0.05,22.950000000000003,0)" xlink:href="#T"/></g><path fill="#333" d="M24-231v-30h32v30H24zM24 0v-190h32V0H24" id="U"/><path fill="#333" d="M59-47c-2 24 18 29 38 22v24C64 9 27 4 27-40v-127H5v-23h24l9-43h21v43h35v23H59v120" id="V"/><g id="c"><use transform="matrix(0.05,0,0,0.05,0,0)" xlink:href="#Q"/><use transform="matrix(0.05,0,0,0.05,9,0)" xlink:href="#U"/><use transform="matrix(0.05,0,0,0.05,12.949999999999998,0)" xlink:href="#V"/><use transform="matrix(0.05,0,0,0.05,17.95,0)" xlink:href="#J"/></g><path fill="#333" d="M232-93c-1 65-40 97-104 97C67 4 28-28 28-90v-158h33c8 89-33 224 67 224 102 0 64-133 71-224h33v155" id="W"/><g id="d"><use transform="matrix(0.06234567901234567,0,0,0.06234567901234567,0,0)" xlink:href="#W"/><use transform="matrix(0.06234567901234567,0,0,0.06234567901234567,16.147530864197527,0)" xlink:href="#Q"/><use transform="matrix(0.06234567901234567,0,0,0.06234567901234567,27.36975308641975,0)" xlink:href="#J"/><use transform="matrix(0.06234567901234567,0,0,0.06234567901234567,39.83888888888888,0)" xlink:href="#N"/></g><path fill="#333" d="M63-220v92h138v28H63V0H30v-248h175v28H63" id="X"/><path fill="#333" d="M117-194c89-4 53 116 60 194h-32v-121c0-31-8-49-39-48C34-167 62-67 57 0H25l-1-190h30c1 10-1 24 2 32 11-22 29-35 61-36" id="Y"/><path fill="#333" d="M96-169c-40 0-48 33-48 73s9 75 48 75c24 0 41-14 43-38l32 2c-6 37-31 61-74 61-59 0-76-41-82-99-10-93 101-131 147-64 4 7 5 14 7 22l-32 3c-4-21-16-35-41-35" id="Z"/><g id="e"><use transform="matrix(0.06234567901234567,0,0,0.06234567901234567,0,0)" xlink:href="#X"/><use transform="matrix(0.06234567901234567,0,0,0.06234567901234567,13.653703703703702,0)" xlink:href="#N"/><use transform="matrix(0.06234567901234567,0,0,0.06234567901234567,21.072839506172837,0)" xlink:href="#J"/><use transform="matrix(0.06234567901234567,0,0,0.06234567901234567,33.541975308641966,0)" xlink:href="#J"/><use transform="matrix(0.06234567901234567,0,0,0.06234567901234567,46.0111111111111,0)" xlink:href="#M"/><use transform="matrix(0.06234567901234567,0,0,0.06234567901234567,50.936419753086405,0)" xlink:href="#P"/><use transform="matrix(0.06234567901234567,0,0,0.06234567901234567,63.40555555555554,0)" xlink:href="#Y"/><use transform="matrix(0.06234567901234567,0,0,0.06234567901234567,75.87469135802468,0)" xlink:href="#Z"/><use transform="matrix(0.06234567901234567,0,0,0.06234567901234567,87.09691358024689,0)" xlink:href="#J"/></g><path d="M30 0v-248h33v221h125V0H30" id="aa"/><path d="M100-194c62-1 85 37 85 99 1 63-27 99-86 99S16-35 15-95c0-66 28-99 85-99zM99-20c44 1 53-31 53-75 0-43-8-75-51-75s-53 32-53 75 10 74 51 75" id="ab"/><path d="M177-190C167-65 218 103 67 71c-23-6-38-20-44-43l32-5c15 47 100 32 89-28v-30C133-14 115 1 83 1 29 1 15-40 15-95c0-56 16-97 71-98 29-1 48 16 59 35 1-10 0-23 2-32h30zM94-22c36 0 50-32 50-73 0-42-14-75-50-75-39 0-46 34-46 75s6 73 46 73" id="ac"/><g id="f"><use transform="matrix(0.05,0,0,0.05,0,0)" xlink:href="#aa"/><use transform="matrix(0.05,0,0,0.05,10,0)" xlink:href="#ab"/><use transform="matrix(0.05,0,0,0.05,20,0)" xlink:href="#ac"/></g><path d="M24-231v-30h32v30H24zM24 0v-190h32V0H24" id="ad"/><path d="M117-194c89-4 53 116 60 194h-32v-121c0-31-8-49-39-48C34-167 62-67 57 0H25l-1-190h30c1 10-1 24 2 32 11-22 29-35 61-36" id="ae"/><g id="g"><use transform="matrix(0.05,0,0,0.05,0,0)" xlink:href="#ad"/><use transform="matrix(0.05,0,0,0.05,3.95,0)" xlink:href="#ae"/></g><path d="M185-189c-5-48-123-54-124 2 14 75 158 14 163 119 3 78-121 87-175 55-17-10-28-26-33-46l33-7c5 56 141 63 141-1 0-78-155-14-162-118-5-82 145-84 179-34 5 7 8 16 11 25" id="af"/><g id="h"><use transform="matrix(0.05,0,0,0.05,0,0)" xlink:href="#af"/><use transform="matrix(0.05,0,0,0.05,12,0)" xlink:href="#ad"/><use transform="matrix(0.05,0,0,0.05,15.949999999999998,0)" xlink:href="#ac"/><use transform="matrix(0.05,0,0,0.05,25.950000000000003,0)" xlink:href="#ae"/></g><path d="M232-93c-1 65-40 97-104 97C67 4 28-28 28-90v-158h33c8 89-33 224 67 224 102 0 64-133 71-224h33v155" id="ag"/><path d="M115-194c55 1 70 41 70 98S169 2 115 4C84 4 66-9 55-30l1 105H24l-1-265h31l2 30c10-21 28-34 59-34zm-8 174c40 0 45-34 45-75s-6-73-45-74c-42 0-51 32-51 76 0 43 10 73 51 73" id="ah"/><g id="i"><use transform="matrix(0.05,0,0,0.05,0,0)" xlink:href="#ag"/><use transform="matrix(0.05,0,0,0.05,12.950000000000001,0)" xlink:href="#ah"/></g><path d="M137 0h-34L2-248h35l83 218 83-218h36" id="ai"/><path d="M100-194c63 0 86 42 84 106H49c0 40 14 67 53 68 26 1 43-12 49-29l28 8c-11 28-37 45-77 45C44 4 14-33 15-96c1-61 26-98 85-98zm52 81c6-60-76-77-97-28-3 7-6 17-6 28h103" id="aj"/><path d="M114-163C36-179 61-72 57 0H25l-1-190h30c1 12-1 29 2 39 6-27 23-49 58-41v29" id="ak"/><path d="M101-234c-31-9-42 10-38 44h38v23H63V0H32v-167H5v-23h27c-7-52 17-82 69-68v24" id="al"/><path d="M179-190L93 31C79 59 56 82 12 73V49c39 6 53-20 64-50L1-190h34L92-34l54-156h33" id="am"/><g id="j"><use transform="matrix(0.05,0,0,0.05,0,0)" xlink:href="#ai"/><use transform="matrix(0.05,0,0,0.05,11,0)" xlink:href="#aj"/><use transform="matrix(0.05,0,0,0.05,21,0)" xlink:href="#ak"/><use transform="matrix(0.05,0,0,0.05,26.950000000000003,0)" xlink:href="#ad"/><use transform="matrix(0.05,0,0,0.05,30.899999999999995,0)" xlink:href="#al"/><use transform="matrix(0.05,0,0,0.05,35.9,0)" xlink:href="#am"/></g><path d="M205 0l-28-72H64L36 0H1l101-248h38L239 0h-34zm-38-99l-47-123c-12 45-31 82-46 123h93" id="an"/><path d="M96-169c-40 0-48 33-48 73s9 75 48 75c24 0 41-14 43-38l32 2c-6 37-31 61-74 61-59 0-76-41-82-99-10-93 101-131 147-64 4 7 5 14 7 22l-32 3c-4-21-16-35-41-35" id="ao"/><path d="M59-47c-2 24 18 29 38 22v24C64 9 27 4 27-40v-127H5v-23h24l9-43h21v43h35v23H59v120" id="ap"/><g id="k"><use transform="matrix(0.05,0,0,0.05,0,0)" xlink:href="#an"/><use transform="matrix(0.05,0,0,0.05,12,0)" xlink:href="#ao"/><use transform="matrix(0.05,0,0,0.05,21,0)" xlink:href="#ao"/><use transform="matrix(0.05,0,0,0.05,30,0)" xlink:href="#ab"/><use transform="matrix(0.05,0,0,0.05,40,0)" xlink:href="#ae"/><use transform="matrix(0.05,0,0,0.05,50,0)" xlink:href="#ap"/></g><path d="M30-248c118-7 216 8 213 122C240-48 200 0 122 0H30v-248zM63-27c89 8 146-16 146-99s-60-101-146-95v194" id="aq"/><path d="M135-143c-3-34-86-38-87 0 15 53 115 12 119 90S17 21 10-45l28-5c4 36 97 45 98 0-10-56-113-15-118-90-4-57 82-63 122-42 12 7 21 19 24 35" id="ar"/><path d="M24 0v-261h32V0H24" id="as"/><g id="l"><use transform="matrix(0.05,0,0,0.05,0,0)" xlink:href="#aq"/><use transform="matrix(0.05,0,0,0.05,12.950000000000001,0)" xlink:href="#ad"/><use transform="matrix(0.05,0,0,0.05,16.900000000000002,0)" xlink:href="#ar"/><use transform="matrix(0.05,0,0,0.05,25.900000000000002,0)" xlink:href="#ah"/><use transform="matrix(0.05,0,0,0.05,35.900000000000006,0)" xlink:href="#as"/><use transform="matrix(0.05,0,0,0.05,39.85000000000001,0)" xlink:href="#am"/></g><g id="m"><use transform="matrix(0.05,0,0,0.05,0,0)" xlink:href="#as"/><use transform="matrix(0.05,0,0,0.05,3.95,0)" xlink:href="#ab"/><use transform="matrix(0.05,0,0,0.05,13.949999999999998,0)" xlink:href="#ac"/><use transform="matrix(0.05,0,0,0.05,23.95,0)" xlink:href="#ad"/><use transform="matrix(0.05,0,0,0.05,27.899999999999995,0)" xlink:href="#ae"/></g><g id="n"><use transform="matrix(0.05,0,0,0.05,0,0)" xlink:href="#aj"/><use transform="matrix(0.05,0,0,0.05,10,0)" xlink:href="#ak"/><use transform="matrix(0.05,0,0,0.05,15.949999999999998,0)" xlink:href="#ak"/><use transform="matrix(0.05,0,0,0.05,21.9,0)" xlink:href="#ab"/><use transform="matrix(0.05,0,0,0.05,31.899999999999995,0)" xlink:href="#ak"/></g><path fill="#333" d="M18-100v-36l175-74v27L42-118l151 64v27" id="at"/><path fill="#333" d="M33 0v-248h34V0H33" id="au"/><path fill="#333" d="M84 4C-5 8 30-112 23-190h32v120c0 31 7 50 39 49 72-2 45-101 50-169h31l1 190h-30c-1-10 1-25-2-33-11 22-28 36-60 37" id="av"/><path fill="#333" d="M85-194c31 0 48 13 60 33l-1-100h32l1 261h-30c-2-10 0-23-3-31C134-8 116 4 85 4 32 4 16-35 15-94c0-66 23-100 70-100zm9 24c-40 0-46 34-46 75 0 40 6 74 45 74 42 0 51-32 51-76 0-42-9-74-50-73" id="aw"/><path fill="#333" d="M18-27v-27l151-64-151-65v-27l175 74v36" id="ax"/><g id="o"><use transform="matrix(0.05,0,0,0.05,0,0)" xlink:href="#at"/><use transform="matrix(0.05,0,0,0.05,10.5,0)" xlink:href="#at"/><use transform="matrix(0.05,0,0,0.05,21,0)" xlink:href="#au"/><use transform="matrix(0.05,0,0,0.05,26,0)" xlink:href="#Y"/><use transform="matrix(0.05,0,0,0.05,36,0)" xlink:href="#Z"/><use transform="matrix(0.05,0,0,0.05,45,0)" xlink:href="#M"/><use transform="matrix(0.05,0,0,0.05,48.95,0)" xlink:href="#av"/><use transform="matrix(0.05,0,0,0.05,58.95,0)" xlink:href="#aw"/><use transform="matrix(0.05,0,0,0.05,68.95,0)" xlink:href="#J"/><use transform="matrix(0.05,0,0,0.05,78.95,0)" xlink:href="#ax"/><use transform="matrix(0.05,0,0,0.05,89.45,0)" xlink:href="#ax"/></g><path fill="#333" d="M30 0v-248h187v28H63v79h144v27H63v87h162V0H30" id="ay"/><path fill="#333" d="M141 0L90-78 38 0H4l68-98-65-92h35l48 74 47-74h35l-64 92 68 98h-35" id="az"/><g id="p"><use transform="matrix(0.05,0,0,0.05,0,0)" xlink:href="#at"/><use transform="matrix(0.05,0,0,0.05,10.5,0)" xlink:href="#at"/><use transform="matrix(0.05,0,0,0.05,21,0)" xlink:href="#ay"/><use transform="matrix(0.05,0,0,0.05,33,0)" xlink:href="#az"/><use transform="matrix(0.05,0,0,0.05,42,0)" xlink:href="#V"/><use transform="matrix(0.05,0,0,0.05,47,0)" xlink:href="#J"/><use transform="matrix(0.05,0,0,0.05,57,0)" xlink:href="#Y"/><use transform="matrix(0.05,0,0,0.05,67,0)" xlink:href="#aw"/><use transform="matrix(0.05,0,0,0.05,77,0)" xlink:href="#ax"/><use transform="matrix(0.05,0,0,0.05,87.5,0)" xlink:href="#ax"/></g><g id="q"><use transform="matrix(0.05,0,0,0.05,0,0)" xlink:href="#at"/><use transform="matrix(0.05,0,0,0.05,10.5,0)" xlink:href="#at"/><use transform="matrix(0.05,0,0,0.05,21,0)" xlink:href="#U"/><use transform="matrix(0.05,0,0,0.05,24.95,0)" xlink:href="#Y"/><use transform="matrix(0.05,0,0,0.05,34.95,0)" xlink:href="#Z"/><use transform="matrix(0.05,0,0,0.05,43.95,0)" xlink:href="#M"/><use transform="matrix(0.05,0,0,0.05,47.900000000000006,0)" xlink:href="#av"/><use transform="matrix(0.05,0,0,0.05,57.900000000000006,0)" xlink:href="#aw"/><use transform="matrix(0.05,0,0,0.05,67.9,0)" xlink:href="#J"/><use transform="matrix(0.05,0,0,0.05,77.9,0)" xlink:href="#ax"/><use transform="matrix(0.05,0,0,0.05,88.4,0)" xlink:href="#ax"/></g><path d="M212-179c-10-28-35-45-73-45-59 0-87 40-87 99 0 60 29 101 89 101 43 0 62-24 78-52l27 14C228-24 195 4 139 4 59 4 22-46 18-125c-6-104 99-153 187-111 19 9 31 26 39 46" id="aA"/><path d="M141-36C126-15 110 5 73 4 37 3 15-17 15-53c-1-64 63-63 125-63 3-35-9-54-41-54-24 1-41 7-42 31l-33-3c5-37 33-52 76-52 45 0 72 20 72 64v82c-1 20 7 32 28 27v20c-31 9-61-2-59-35zM48-53c0 20 12 33 32 33 41-3 63-29 60-74-43 2-92-5-92 41" id="aB"/><g id="r"><use transform="matrix(0.05,0,0,0.05,0,0)" xlink:href="#aA"/><use transform="matrix(0.05,0,0,0.05,12.950000000000001,0)" xlink:href="#ak"/><use transform="matrix(0.05,0,0,0.05,18.900000000000002,0)" xlink:href="#aj"/><use transform="matrix(0.05,0,0,0.05,28.900000000000002,0)" xlink:href="#aB"/><use transform="matrix(0.05,0,0,0.05,38.900000000000006,0)" xlink:href="#ap"/><use transform="matrix(0.05,0,0,0.05,43.900000000000006,0)" xlink:href="#aj"/></g><path d="M24-231v-30h32v30H24zM-9 49c24 4 33-6 33-30v-209h32V24c2 40-23 58-65 49V49" id="aC"/><g id="s"><use transform="matrix(0.05,0,0,0.05,0,0)" xlink:href="#ah"/><use transform="matrix(0.05,0,0,0.05,10,0)" xlink:href="#ak"/><use transform="matrix(0.05,0,0,0.05,15.949999999999998,0)" xlink:href="#ab"/><use transform="matrix(0.05,0,0,0.05,25.950000000000003,0)" xlink:href="#aC"/><use transform="matrix(0.05,0,0,0.05,29.899999999999995,0)" xlink:href="#aj"/><use transform="matrix(0.05,0,0,0.05,39.9,0)" xlink:href="#ao"/><use transform="matrix(0.05,0,0,0.05,48.9,0)" xlink:href="#ap"/></g><path d="M85-194c31 0 48 13 60 33l-1-100h32l1 261h-30c-2-10 0-23-3-31C134-8 116 4 85 4 32 4 16-35 15-94c0-66 23-100 70-100zm9 24c-40 0-46 34-46 75 0 40 6 74 45 74 42 0 51-32 51-76 0-42-9-74-50-73" id="aD"/><g id="t"><use transform="matrix(0.05,0,0,0.05,0,0)" xlink:href="#an"/><use transform="matrix(0.05,0,0,0.05,12,0)" xlink:href="#aD"/><use transform="matrix(0.05,0,0,0.05,22,0)" xlink:href="#aD"/></g><path d="M127-220V0H93v-220H8v-28h204v28h-85" id="aE"/><path d="M210-169c-67 3-38 105-44 169h-31v-121c0-29-5-50-35-48C34-165 62-65 56 0H25l-1-190h30c1 10-1 24 2 32 10-44 99-50 107 0 11-21 27-35 58-36 85-2 47 119 55 194h-31v-121c0-29-5-49-35-48" id="aF"/><g id="u"><use transform="matrix(0.05,0,0,0.05,0,0)" xlink:href="#aE"/><use transform="matrix(0.05,0,0,0.05,8.950000000000001,0)" xlink:href="#aj"/><use transform="matrix(0.05,0,0,0.05,18.950000000000003,0)" xlink:href="#ar"/><use transform="matrix(0.05,0,0,0.05,27.950000000000003,0)" xlink:href="#ap"/><use transform="matrix(0.05,0,0,0.05,32.95,0)" xlink:href="#ad"/><use transform="matrix(0.05,0,0,0.05,36.900000000000006,0)" xlink:href="#aF"/><use transform="matrix(0.05,0,0,0.05,51.85,0)" xlink:href="#ab"/><use transform="matrix(0.05,0,0,0.05,61.85,0)" xlink:href="#ae"/><use transform="matrix(0.05,0,0,0.05,71.85000000000001,0)" xlink:href="#ad"/><use transform="matrix(0.05,0,0,0.05,75.80000000000001,0)" xlink:href="#aB"/><use transform="matrix(0.05,0,0,0.05,85.80000000000001,0)" xlink:href="#as"/></g><g id="v"><use transform="matrix(0.05,0,0,0.05,0,0)" xlink:href="#ag"/><use transform="matrix(0.05,0,0,0.05,12.950000000000001,0)" xlink:href="#ah"/></g><g id="w"><use transform="matrix(0.05,0,0,0.05,0,0)" xlink:href="#aD"/><use transform="matrix(0.05,0,0,0.05,10,0)" xlink:href="#aB"/><use transform="matrix(0.05,0,0,0.05,20,0)" xlink:href="#ap"/><use transform="matrix(0.05,0,0,0.05,25,0)" xlink:href="#aj"/></g><g id="x"><use transform="matrix(0.05,0,0,0.05,0,0)" xlink:href="#ah"/><use transform="matrix(0.05,0,0,0.05,10,0)" xlink:href="#ak"/><use transform="matrix(0.05,0,0,0.05,15.949999999999998,0)" xlink:href="#ab"/><use transform="matrix(0.05,0,0,0.05,25.950000000000003,0)" xlink:href="#al"/><use transform="matrix(0.05,0,0,0.05,30.950000000000003,0)" xlink:href="#ad"/><use transform="matrix(0.05,0,0,0.05,34.9,0)" xlink:href="#aj"/><use transform="matrix(0.05,0,0,0.05,44.9,0)" xlink:href="#as"/></g><path d="M631-137c179 0 314-70 314-231 0-71-25-127-75-166s-141-77-272-115c-165-47-285-106-360-175s-112-154-112-255c0-245 231-397 495-397 206 0 369 89 449 218 43 68 65 142 65 223H942c0-184-129-283-321-283-172 0-299 76-301 236 0 59 26 109 76 150s135 78 256 113c205 59 345 116 436 256 35 53 50 119 50 193-2 256-231 398-507 390C333 12 90-129 80-422h193c0 187 160 285 358 285" id="aG"/><path d="M491 20c-241-1-355-148-355-398v-704h185v699c0 164 67 246 200 246 141 0 235-53 282-158v-787h185V0H812l-4-107C736-22 630 20 491 20" id="aH"/><path d="M634-1102c292 0 422 254 422 573 0 298-143 547-420 549-137 0-242-48-317-145L310 0H140v-1536h185v573c75-93 178-139 309-139zm-44 965c207 0 281-175 281-413 0-224-79-395-283-395-122 0-210 57-263 170v468c57 113 145 170 265 170" id="aI"/><path d="M1240-945c-141 0-250 95-250 227V0H804v-709c0-157-77-236-231-236-121 0-204 52-249 155V0H139v-1082h175l5 120c79-93 186-140 321-140 151 0 254 58 309 174 69-98 181-174 345-174 237 0 362 126 362 377V0h-185v-714c-2-159-67-231-231-231" id="aJ"/><path d="M341 0H156v-1082h185V0zm-91-1264c-68 0-108-42-109-105 0-62 41-107 109-107s110 44 110 107-42 105-110 105" id="aK"/><path d="M456 20C285 20 205-92 206-268v-671H9v-143h197v-262h185v262h202v143H391v671c-9 125 92 149 207 118V0c-49 13-96 20-142 20" id="aL"/><g id="y"><use transform="matrix(0.010416666666666668,0,0,0.010416666666666668,0,0)" xlink:href="#aG"/><use transform="matrix(0.010416666666666668,0,0,0.010416666666666668,12.656250000000002,0)" xlink:href="#aH"/><use transform="matrix(0.010416666666666668,0,0,0.010416666666666668,24.416666666666668,0)" xlink:href="#aI"/><use transform="matrix(0.010416666666666668,0,0,0.010416666666666668,36.38541666666667,0)" xlink:href="#aJ"/><use transform="matrix(0.010416666666666668,0,0,0.010416666666666668,55.08333333333334,0)" xlink:href="#aK"/><use transform="matrix(0.010416666666666668,0,0,0.010416666666666668,60.260416666666686,0)" xlink:href="#aL"/></g><path d="M703-1476c426 0 599 333 586 795-11 408-187 701-584 701-422 0-587-333-587-793 0-282 106-507 280-617 89-56 190-86 305-86zm2 1333c312 0 393-279 393-632 0-308-116-536-395-536-269 0-394 232-394 523v107c-4 298 123 538 396 538" id="aM"/><path d="M704-1390c-164-38-297 28-288 194v114h231v143H416V0H231v-939H60v-143h171v-111c-12-274 208-416 483-347" id="aN"/><path d="M599-131c141 0 220-65 285-146l113 88C906-50 770 20 589 20 281 21 93-214 93-545c0-223 93-397 233-485 74-48 154-72 240-72 300 2 449 218 445 537v77H278c0 197 129 357 321 357zm227-509c-3-180-88-310-260-310-170 0-264 140-282 310h542" id="aO"/><path d="M663-916c-163-27-288 18-338 148V0H140v-1082h180l3 125c61-97 147-145 258-145 36 0 63 5 82 14v172" id="aP"/><g id="z"><use transform="matrix(0.010416666666666668,0,0,0.010416666666666668,0,0)" xlink:href="#aM"/><use transform="matrix(0.010416666666666668,0,0,0.010416666666666668,14.666666666666668,0)" xlink:href="#aN"/><use transform="matrix(0.010416666666666668,0,0,0.010416666666666668,22.072916666666668,0)" xlink:href="#aN"/><use transform="matrix(0.010416666666666668,0,0,0.010416666666666668,29.22916666666667,0)" xlink:href="#aO"/><use transform="matrix(0.010416666666666668,0,0,0.010416666666666668,40.53125,0)" xlink:href="#aP"/></g><path d="M973-380H363L226 0H28l556-1456h168L1309 0h-197zM421-538h495l-248-681" id="aQ"/><path d="M277-555c0 244 77 420 297 424 127 2 249-93 255-210h175C980-127 805 20 574 20 258 20 81-222 92-562c11-319 164-533 481-540 237-5 426 165 431 392H829c-7-133-115-242-256-240-209 4-296 166-296 395" id="aR"/><path d="M632-1102c291 0 422 251 422 573 0 297-141 548-419 549-131 0-235-42-310-125v521H140v-1498h169l9 120c75-93 180-140 314-140zm-53 971c207 0 290-180 290-419 0-218-92-395-292-395-112 0-196 50-252 149v517c55 99 140 148 254 148" id="aS"/><path d="M177 125H18l608-1581h158" id="aT"/><path d="M1161-1018c0 201-122 330-278 388l342 618V0h-206L703-589H361V0H168v-1456h482c310-2 511 139 511 438zm-193 0c0-187-120-280-313-280H361v552h295c179 3 313-101 312-272" id="aU"/><path d="M19 279c92 0 127-48 127-150v-1211h185V125c0 208-94 312-283 312-41 0-78-6-113-18V271c21 5 49 8 84 8zm216-1543c-68 0-107-42-108-105 0-61 42-107 108-107 68 0 110 44 110 107s-42 105-110 105" id="aV"/><g id="A"><use transform="matrix(0.010416666666666668,0,0,0.010416666666666668,0,0)" xlink:href="#aQ"/><use transform="matrix(0.010416666666666668,0,0,0.010416666666666668,13.916666666666668,0)" xlink:href="#aR"/><use transform="matrix(0.010416666666666668,0,0,0.010416666666666668,25.083333333333336,0)" xlink:href="#aR"/><use transform="matrix(0.010416666666666668,0,0,0.010416666666666668,36.25,0)" xlink:href="#aO"/><use transform="matrix(0.010416666666666668,0,0,0.010416666666666668,47.552083333333336,0)" xlink:href="#aS"/><use transform="matrix(0.010416666666666668,0,0,0.010416666666666668,59.52083333333334,0)" xlink:href="#aL"/><use transform="matrix(0.010416666666666668,0,0,0.010416666666666668,66.48958333333334,0)" xlink:href="#aT"/><use transform="matrix(0.010416666666666668,0,0,0.010416666666666668,75.28125000000001,0)" xlink:href="#aU"/><use transform="matrix(0.010416666666666668,0,0,0.010416666666666668,88.41666666666667,0)" xlink:href="#aO"/><use transform="matrix(0.010416666666666668,0,0,0.010416666666666668,99.71875000000001,0)" xlink:href="#aV"/><use transform="matrix(0.010416666666666668,0,0,0.010416666666666668,104.81250000000001,0)" xlink:href="#aO"/><use transform="matrix(0.010416666666666668,0,0,0.010416666666666668,116.11458333333334,0)" xlink:href="#aR"/><use transform="matrix(0.010416666666666668,0,0,0.010416666666666668,127.28125000000001,0)" xlink:href="#aL"/></g><path fill="#3a414a" d="M205 0l-28-72H64L36 0H1l101-248h38L239 0h-34zm-38-99l-47-123c-12 45-31 82-46 123h93" id="aW"/><path fill="#3a414a" d="M85-194c31 0 48 13 60 33l-1-100h32l1 261h-30c-2-10 0-23-3-31C134-8 116 4 85 4 32 4 16-35 15-94c0-66 23-100 70-100zm9 24c-40 0-46 34-46 75 0 40 6 74 45 74 42 0 51-32 51-76 0-42-9-74-50-73" id="aX"/><path fill="#3a414a" d="M210-169c-67 3-38 105-44 169h-31v-121c0-29-5-50-35-48C34-165 62-65 56 0H25l-1-190h30c1 10-1 24 2 32 10-44 99-50 107 0 11-21 27-35 58-36 85-2 47 119 55 194h-31v-121c0-29-5-49-35-48" id="aY"/><path fill="#3a414a" d="M24-231v-30h32v30H24zM24 0v-190h32V0H24" id="aZ"/><path fill="#3a414a" d="M117-194c89-4 53 116 60 194h-32v-121c0-31-8-49-39-48C34-167 62-67 57 0H25l-1-190h30c1 10-1 24 2 32 11-22 29-35 61-36" id="ba"/><g id="B"><use transform="matrix(0.06234567901234567,0,0,0.06234567901234567,0,0)" xlink:href="#aW"/><use transform="matrix(0.06234567901234567,0,0,0.06234567901234567,14.96296296296296,0)" xlink:href="#aX"/><use transform="matrix(0.06234567901234567,0,0,0.06234567901234567,27.432098765432094,0)" xlink:href="#aY"/><use transform="matrix(0.06234567901234567,0,0,0.06234567901234567,46.073456790123444,0)" xlink:href="#aZ"/><use transform="matrix(0.06234567901234567,0,0,0.06234567901234567,50.99876543209875,0)" xlink:href="#ba"/></g><path d="M992-673H361v516h733V0H169v-1456h915v158H361v468h631v157" id="bb"/><path d="M520 20C244 20 95-247 95-550c0-298 151-550 427-552 127 0 227 43 301 130v-564h185V0H838l-9-116C755-25 652 20 520 20zm48-965c-210 0-288 177-288 416 0 218 87 392 286 392 117 0 203-53 257-158v-497c-55-102-140-153-255-153" id="bc"/><path d="M1222-777c17 480-206 763-650 777H169v-1456h411c408 9 627 269 642 679zm-190 4c3-312-149-522-447-525H361v1141h202c308 0 473-209 469-531v-85" id="bd"/><path d="M341 0H156v-1536h185V0" id="be"/><g id="C"><use transform="matrix(0.010416666666666668,0,0,0.010416666666666668,0,0)" xlink:href="#bb"/><use transform="matrix(0.010416666666666668,0,0,0.010416666666666668,11.927083333333334,0)" xlink:href="#bc"/><use transform="matrix(0.010416666666666668,0,0,0.010416666666666668,23.958333333333336,0)" xlink:href="#aK"/><use transform="matrix(0.010416666666666668,0,0,0.010416666666666668,29.13541666666667,0)" xlink:href="#aL"/><use transform="matrix(0.010416666666666668,0,0,0.010416666666666668,36.10416666666667,0)" xlink:href="#aT"/><use transform="matrix(0.010416666666666668,0,0,0.010416666666666668,44.895833333333336,0)" xlink:href="#bd"/><use transform="matrix(0.010416666666666668,0,0,0.010416666666666668,58.885416666666686,0)" xlink:href="#aO"/><use transform="matrix(0.010416666666666668,0,0,0.010416666666666668,70.18750000000001,0)" xlink:href="#be"/><use transform="matrix(0.010416666666666668,0,0,0.010416666666666668,75.36458333333334,0)" xlink:href="#aO"/><use transform="matrix(0.010416666666666668,0,0,0.010416666666666668,86.66666666666667,0)" xlink:href="#aL"/><use transform="matrix(0.010416666666666668,0,0,0.010416666666666668,93.63541666666667,0)" xlink:href="#aO"/></g><path d="M665-137c214 0 337-121 336-332v-987h193v990c-3 300-218 486-529 486-309 0-526-181-525-484v-992h190v986c-1 210 123 333 335 333" id="bf"/><path d="M538-131c121 0 232-49 232-156 0-50-20-88-56-117-73-60-334-92-420-143-92-55-162-110-162-238 0-190 192-317 400-317 223 0 414 129 413 338H759c0-108-110-186-227-186-119 0-215 53-215 159 0 45 18 78 53 101 76 52 331 90 416 139 98 57 169 115 169 251C955-92 760 20 538 20c-176 0-314-68-386-174-38-55-57-115-57-179h185c6 129 116 202 258 202" id="bg"/><g id="D"><use transform="matrix(0.010416666666666668,0,0,0.010416666666666668,0,0)" xlink:href="#bf"/><use transform="matrix(0.010416666666666668,0,0,0.010416666666666668,13.833333333333336,0)" xlink:href="#bg"/><use transform="matrix(0.010416666666666668,0,0,0.010416666666666668,24.833333333333336,0)" xlink:href="#aO"/><use transform="matrix(0.010416666666666668,0,0,0.010416666666666668,36.13541666666667,0)" xlink:href="#aP"/><use transform="matrix(0.010416666666666668,0,0,0.010416666666666668,43.35416666666667,0)" xlink:href="#bg"/></g><path d="M584 20C278 26 81-227 91-551c10-320 175-545 491-551 308-5 503 247 494 573-9 322-175 543-492 549zm-2-970c-208 0-305 185-305 421 0 216 106 398 307 398 211 0 307-186 307-420 0-214-109-399-309-399" id="bh"/><g id="E"><use transform="matrix(0.010416666666666668,0,0,0.010416666666666668,0,0)" xlink:href="#aU"/><use transform="matrix(0.010416666666666668,0,0,0.010416666666666668,13.135416666666668,0)" xlink:href="#bh"/><use transform="matrix(0.010416666666666668,0,0,0.010416666666666668,25.302083333333336,0)" xlink:href="#be"/><use transform="matrix(0.010416666666666668,0,0,0.010416666666666668,30.47916666666667,0)" xlink:href="#aO"/></g><path d="M521 20C240 20 96-239 96-550c0-303 147-552 427-552 132 0 235 47 309 140l9-120h169V-26c4 277-183 454-459 452-165-1-334-81-400-187l96-111c79 98 176 147 291 147 180 1 288-109 286-290v-93C750-23 649 20 521 20zm48-965c-209 0-287 178-287 416 0 217 86 392 285 392 117 0 202-53 257-159v-494c-57-103-142-155-255-155" id="bi"/><path d="M589-945c-131 0-219 81-264 174V0H140v-1082h175l6 136c83-104 191-156 324-156 229 0 346 129 346 387V0H806v-716c-2-153-65-229-217-229" id="bj"/><g id="F"><use transform="matrix(0.010416666666666668,0,0,0.010416666666666668,0,0)" xlink:href="#aQ"/><use transform="matrix(0.010416666666666668,0,0,0.010416666666666668,13.916666666666668,0)" xlink:href="#bg"/><use transform="matrix(0.010416666666666668,0,0,0.010416666666666668,24.916666666666668,0)" xlink:href="#bg"/><use transform="matrix(0.010416666666666668,0,0,0.010416666666666668,35.91666666666667,0)" xlink:href="#aK"/><use transform="matrix(0.010416666666666668,0,0,0.010416666666666668,41.09375000000001,0)" xlink:href="#bi"/><use transform="matrix(0.010416666666666668,0,0,0.010416666666666668,53.06250000000001,0)" xlink:href="#bj"/><use transform="matrix(0.010416666666666668,0,0,0.010416666666666668,64.83333333333334,0)" xlink:href="#aJ"/><use transform="matrix(0.010416666666666668,0,0,0.010416666666666668,83.53125000000001,0)" xlink:href="#aO"/><use transform="matrix(0.010416666666666668,0,0,0.010416666666666668,94.83333333333334,0)" xlink:href="#bj"/><use transform="matrix(0.010416666666666668,0,0,0.010416666666666668,106.60416666666667,0)" xlink:href="#aL"/></g><g id="G"><use transform="matrix(0.06234567901234567,0,0,0.06234567901234567,0,0)" xlink:href="#aA"/><use transform="matrix(0.06234567901234567,0,0,0.06234567901234567,16.147530864197527,0)" xlink:href="#ak"/><use transform="matrix(0.06234567901234567,0,0,0.06234567901234567,23.566666666666663,0)" xlink:href="#aj"/><use transform="matrix(0.06234567901234567,0,0,0.06234567901234567,36.035802469135795,0)" xlink:href="#aB"/><use transform="matrix(0.06234567901234567,0,0,0.06234567901234567,48.50493827160493,0)" xlink:href="#ap"/><use transform="matrix(0.06234567901234567,0,0,0.06234567901234567,54.7395061728395,0)" xlink:href="#aj"/></g><g id="H"><use transform="matrix(0.06234567901234567,0,0,0.06234567901234567,0,0)" xlink:href="#ao"/><use transform="matrix(0.06234567901234567,0,0,0.06234567901234567,11.22222222222222,0)" xlink:href="#aB"/><use transform="matrix(0.06234567901234567,0,0,0.06234567901234567,23.691358024691354,0)" xlink:href="#ap"/><use transform="matrix(0.06234567901234567,0,0,0.06234567901234567,29.92592592592592,0)" xlink:href="#aj"/><use transform="matrix(0.06234567901234567,0,0,0.06234567901234567,42.39506172839505,0)" xlink:href="#ac"/><use transform="matrix(0.06234567901234567,0,0,0.06234567901234567,54.86419753086418,0)" xlink:href="#ab"/><use transform="matrix(0.06234567901234567,0,0,0.06234567901234567,67.33333333333331,0)" xlink:href="#ak"/><use transform="matrix(0.06234567901234567,0,0,0.06234567901234567,74.75246913580244,0)" xlink:href="#ad"/><use transform="matrix(0.06234567901234567,0,0,0.06234567901234567,79.67777777777775,0)" xlink:href="#aj"/></g></defs></g></svg>