<svg xmlns="http://www.w3.org/2000/svg" xmlns:xlink="http://www.w3.org/1999/xlink" xmlns:lucid="lucid" width="1918.35" height="1085"><g transform="translate(2002.0709639468835 1225.1462020049848)" lucid:page-tab-id="0_0"><path d="M-1877.57-955.65a6 6 0 0 1 6-6h397.85a6 6 0 0 1 6 6v244a6 6 0 0 1-6 6h-397.85a6 6 0 0 1-6-6z" fill="#fff"/><path d="M-1877.57-885.65v37h409.85v-37M-1877.57-813.65v37h409.85v-37M-1877.57-741.65v30a6 6 0 0 0 6 6h397.85a6 6 0 0 0 6-6v-30" fill="#e6e6e6"/><path d="M-1877.57-921.65v-34a6 6 0 0 1 6-6h397.85a6 6 0 0 1 6 6v34" fill="#54c45e"/><path d="M-1877.57-955.65a6 6 0 0 1 6-6h397.85a6 6 0 0 1 6 6v244a6 6 0 0 1-6 6h-397.85a6 6 0 0 1-6-6zM-1877.57-921.65h409.85M-1817.57-921.65v216" stroke="#5e5e5e" stroke-width="3" fill="none"/><use xlink:href="#a" transform="matrix(1,0,0,1,-1867.5709941314446,-961.6462020049848) translate(171.8395061728395 25.15555555555556)"/><use xlink:href="#b" transform="matrix(1,0,0,1,-1872.5709941314446,-919.1462020049848) translate(13 19.1)"/><use xlink:href="#c" transform="matrix(1,0,0,1,-1812.5709941314446,-919.1462020049848) translate(11.2 20.833333333333332)"/><use xlink:href="#d" transform="matrix(1,0,0,1,-1812.5709941314446,-919.1462020049848) translate(35 20.833333333333332)"/><use xlink:href="#e" transform="matrix(1,0,0,1,-1812.5709941314446,-883.1462020049848) translate(11.2 20.833333333333332)"/><use xlink:href="#f" transform="matrix(1,0,0,1,-1812.5709941314446,-847.1462020049848) translate(11.2 20.833333333333332)"/><use xlink:href="#g" transform="matrix(1,0,0,1,-1812.5709941314446,-811.1462020049848) translate(11.2 20.833333333333332)"/><use xlink:href="#h" transform="matrix(1,0,0,1,-1812.5709941314446,-775.1462020049848) translate(11.2 20.833333333333332)"/><use xlink:href="#i" transform="matrix(1,0,0,1,-1812.5709941314446,-739.1462020049848) translate(11.2 20.833333333333332)"/><path d="M-537.57-835.65a6 6 0 0 1 6-6h397.85a6 6 0 0 1 6 6v100a6 6 0 0 1-6 6h-397.85a6 6 0 0 1-6-6z" fill="#fff"/><path d="M-537.57-765.65v30a6 6 0 0 0 6 6h397.85a6 6 0 0 0 6-6v-30" fill="#e6e6e6"/><path d="M-537.57-801.65v-34a6 6 0 0 1 6-6h397.85a6 6 0 0 1 6 6v34" fill="#54c45e"/><path d="M-537.57-835.65a6 6 0 0 1 6-6h397.85a6 6 0 0 1 6 6v100a6 6 0 0 1-6 6h-397.85a6 6 0 0 1-6-6zM-537.57-801.65h409.85M-477.57-801.65v72" stroke="#5e5e5e" stroke-width="3" fill="none"/><use xlink:href="#j" transform="matrix(1,0,0,1,-527.5709941314449,-841.6462020049848) translate(146.88148148148147 25.333333333333336)"/><use xlink:href="#b" transform="matrix(1,0,0,1,-532.5709941314449,-799.1462020049848) translate(13 19.1)"/><use xlink:href="#c" transform="matrix(1,0,0,1,-472.5709941314449,-799.1462020049848) translate(11.2 20.833333333333332)"/><use xlink:href="#k" transform="matrix(1,0,0,1,-472.5709941314449,-799.1462020049848) translate(35 20.833333333333332)"/><use xlink:href="#l" transform="matrix(1,0,0,1,-472.5709941314449,-763.1462020049848) translate(11.2 20.833333333333332)"/><use xlink:href="#m" transform="matrix(1,0,0,1,-472.5709941314449,-763.1462020049848) translate(97.11851851851854 20.833333333333332)"/><path d="M-1177.57-1197.65a6 6 0 0 1 6-6h397.85a6 6 0 0 1 6 6v136a6 6 0 0 1-6 6h-397.85a6 6 0 0 1-6-6z" fill="#fff"/><path d="M-1177.57-1127.65v37h409.85v-37" fill="#e6e6e6"/><path d="M-1177.57-1163.65v-34a6 6 0 0 1 6-6h397.85a6 6 0 0 1 6 6v34" fill="#54c45e"/><path d="M-1177.57-1197.65a6 6 0 0 1 6-6h397.85a6 6 0 0 1 6 6v136a6 6 0 0 1-6 6h-397.85a6 6 0 0 1-6-6zM-1177.57-1163.65h409.85M-1117.57-1163.65v108" stroke="#5e5e5e" stroke-width="3" fill="none"/><use xlink:href="#n" transform="matrix(1,0,0,1,-1167.5709941314449,-1203.6462020049848) translate(126.21851851851852 25.333333333333336)"/><use xlink:href="#b" transform="matrix(1,0,0,1,-1172.5709941314449,-1161.1462020049848) translate(13 19.1)"/><use xlink:href="#c" transform="matrix(1,0,0,1,-1112.5709941314449,-1161.1462020049848) translate(11.2 20.833333333333332)"/><use xlink:href="#o" transform="matrix(1,0,0,1,-1112.5709941314449,-1161.1462020049848) translate(35 20.833333333333332)"/><use xlink:href="#p" transform="matrix(1,0,0,1,-1112.5709941314449,-1125.1462020049848) translate(11.2 20.833333333333332)"/><use xlink:href="#q" transform="matrix(1,0,0,1,-1172.5709941314449,-1089.1462020049848) translate(13.524999999999999 19.1)"/><use xlink:href="#c" transform="matrix(1,0,0,1,-1112.5709941314449,-1089.1462020049848) translate(11.2 20.833333333333332)"/><use xlink:href="#k" transform="matrix(1,0,0,1,-1112.5709941314449,-1089.1462020049848) translate(35 20.833333333333332)"/><path d="M-1077.57-677.65a6 6 0 0 1 6-6h397.85a6 6 0 0 1 6 6v244a6 6 0 0 1-6 6h-397.85a6 6 0 0 1-6-6z" fill="#fff"/><path d="M-1077.57-607.65v37h409.85v-37M-1077.57-535.65v37h409.85v-37M-1077.57-463.65v30a6 6 0 0 0 6 6h397.85a6 6 0 0 0 6-6v-30" fill="#e6e6e6"/><path d="M-1077.57-643.65v-34a6 6 0 0 1 6-6h397.85a6 6 0 0 1 6 6v34" fill="#54c45e"/><path d="M-1077.57-677.65a6 6 0 0 1 6-6h397.85a6 6 0 0 1 6 6v244a6 6 0 0 1-6 6h-397.85a6 6 0 0 1-6-6zM-1077.57-643.65h409.85M-1017.57-643.65v216" stroke="#5e5e5e" stroke-width="3" fill="none"/><use xlink:href="#r" transform="matrix(1,0,0,1,-1067.5709941314449,-683.6462020049848) translate(158.23703703703703 25.333333333333336)"/><use xlink:href="#b" transform="matrix(1,0,0,1,-1072.5709941314449,-641.1462020049848) translate(13 19.1)"/><use xlink:href="#c" transform="matrix(1,0,0,1,-1012.5709941314449,-641.1462020049848) translate(11.2 20.833333333333332)"/><use xlink:href="#s" transform="matrix(1,0,0,1,-1012.5709941314449,-641.1462020049848) translate(35 20.833333333333332)"/><use xlink:href="#t" transform="matrix(1,0,0,1,-1012.5709941314449,-605.1462020049848) translate(11.2 20.833333333333332)"/><use xlink:href="#u" transform="matrix(1,0,0,1,-1012.5709941314449,-569.1462020049848) translate(11.2 20.833333333333332)"/><use xlink:href="#q" transform="matrix(1,0,0,1,-1072.5709941314449,-533.1462020049848) translate(13.524999999999999 19.1)"/><use xlink:href="#c" transform="matrix(1,0,0,1,-1012.5709941314449,-533.1462020049848) translate(11.2 20.833333333333332)"/><use xlink:href="#k" transform="matrix(1,0,0,1,-1012.5709941314449,-533.1462020049848) translate(35 20.833333333333332)"/><use xlink:href="#q" transform="matrix(1,0,0,1,-1072.5709941314449,-497.14620200498484) translate(13.524999999999999 19.1)"/><use xlink:href="#c" transform="matrix(1,0,0,1,-1012.5709941314449,-497.14620200498484) translate(11.2 20.833333333333332)"/><use xlink:href="#o" transform="matrix(1,0,0,1,-1012.5709941314449,-497.14620200498484) translate(35 20.833333333333332)"/><use xlink:href="#q" transform="matrix(1,0,0,1,-1072.5709941314449,-461.14620200498484) translate(13.524999999999999 19.1)"/><use xlink:href="#c" transform="matrix(1,0,0,1,-1012.5709941314449,-461.14620200498484) translate(11.2 20.833333333333332)"/><use xlink:href="#d" transform="matrix(1,0,0,1,-1012.5709941314449,-461.14620200498484) translate(35 20.833333333333332)"/><path d="M-1957.57-615.65a6 6 0 0 1 6-6h397.85a6 6 0 0 1 6 6v172a6 6 0 0 1-6 6h-397.85a6 6 0 0 1-6-6z" fill="#fff"/><path d="M-1957.57-545.65v37h409.85v-37M-1957.57-473.65v30a6 6 0 0 0 6 6h397.85a6 6 0 0 0 6-6v-30" fill="#e6e6e6"/><path d="M-1957.57-581.65v-34a6 6 0 0 1 6-6h397.85a6 6 0 0 1 6 6v34" fill="#54c45e"/><path d="M-1957.57-615.65a6 6 0 0 1 6-6h397.85a6 6 0 0 1 6 6v172a6 6 0 0 1-6 6h-397.85a6 6 0 0 1-6-6zM-1957.57-581.65h409.85M-1897.57-581.65v144" stroke="#5e5e5e" stroke-width="3" fill="none"/><use xlink:href="#v" transform="matrix(1,0,0,1,-1947.5709941314449,-621.6462020049848) translate(146.3111111111111 25.333333333333336)"/><use xlink:href="#b" transform="matrix(1,0,0,1,-1952.5709941314449,-579.1462020049848) translate(13 19.1)"/><use xlink:href="#c" transform="matrix(1,0,0,1,-1892.5709941314449,-579.1462020049848) translate(11.2 20.833333333333332)"/><use xlink:href="#w" transform="matrix(1,0,0,1,-1892.5709941314449,-579.1462020049848) translate(35 20.833333333333332)"/><use xlink:href="#x" transform="matrix(1,0,0,1,-1892.5709941314449,-543.1462020049848) translate(11.2 20.833333333333332)"/><use xlink:href="#m" transform="matrix(1,0,0,1,-1892.5709941314449,-543.1462020049848) translate(105.36296296296298 20.833333333333332)"/><use xlink:href="#y" transform="matrix(1,0,0,1,-1892.5709941314449,-507.14620200498484) translate(11.2 20.833333333333332)"/><use xlink:href="#q" transform="matrix(1,0,0,1,-1952.5709941314449,-471.14620200498484) translate(13.524999999999999 19.1)"/><use xlink:href="#c" transform="matrix(1,0,0,1,-1892.5709941314449,-471.14620200498484) translate(11.2 20.833333333333332)"/><use xlink:href="#d" transform="matrix(1,0,0,1,-1892.5709941314449,-471.14620200498484) translate(35 20.833333333333332)"/><path d="M-1817.57-375.65a6 6 0 0 1 6-6h397.85a6 6 0 0 1 6 6v208a6 6 0 0 1-6 6h-397.85a6 6 0 0 1-6-6z" fill="#fff"/><path d="M-1817.57-305.65v37h409.85v-37M-1817.57-233.65v37h409.85v-37" fill="#e6e6e6"/><path d="M-1817.57-341.65v-34a6 6 0 0 1 6-6h397.85a6 6 0 0 1 6 6v34" fill="#54c45e"/><path d="M-1817.57-375.65a6 6 0 0 1 6-6h397.85a6 6 0 0 1 6 6v208a6 6 0 0 1-6 6h-397.85a6 6 0 0 1-6-6zM-1817.57-341.65h409.85M-1757.57-341.65v180" stroke="#5e5e5e" stroke-width="3" fill="none"/><use xlink:href="#z" transform="matrix(1,0,0,1,-1807.5709941314446,-381.64620200498484) translate(167.57037037037037 25.333333333333336)"/><use xlink:href="#b" transform="matrix(1,0,0,1,-1812.5709941314446,-339.14620200498484) translate(13 19.1)"/><use xlink:href="#c" transform="matrix(1,0,0,1,-1752.5709941314446,-339.14620200498484) translate(11.2 20.833333333333332)"/><use xlink:href="#A" transform="matrix(1,0,0,1,-1752.5709941314446,-339.14620200498484) translate(35 20.833333333333332)"/><use xlink:href="#B" transform="matrix(1,0,0,1,-1752.5709941314446,-303.14620200498484) translate(11.2 20.833333333333332)"/><use xlink:href="#C" transform="matrix(1,0,0,1,-1752.5709941314446,-267.14620200498484) translate(11.2 20.833333333333332)"/><use xlink:href="#q" transform="matrix(1,0,0,1,-1812.5709941314446,-231.14620200498484) translate(13.524999999999999 19.1)"/><use xlink:href="#c" transform="matrix(1,0,0,1,-1752.5709941314446,-231.14620200498484) translate(11.2 20.833333333333332)"/><use xlink:href="#w" transform="matrix(1,0,0,1,-1752.5709941314446,-231.14620200498484) translate(35 20.833333333333332)"/><use xlink:href="#q" transform="matrix(1,0,0,1,-1812.5709941314446,-195.14620200498484) translate(13.524999999999999 19.1)"/><use xlink:href="#c" transform="matrix(1,0,0,1,-1752.5709941314446,-195.14620200498484) translate(11.2 20.833333333333332)"/><use xlink:href="#s" transform="matrix(1,0,0,1,-1752.5709941314446,-195.14620200498484) translate(35 20.833333333333332)"/><path d="M-1817.57-1175.65a6 6 0 0 1 6-6h397.85a6 6 0 0 1 6 6v136a6 6 0 0 1-6 6h-397.85a6 6 0 0 1-6-6z" fill="#fff"/><path d="M-1817.57-1105.65v37h409.85v-37" fill="#e6e6e6"/><path d="M-1817.57-1141.65v-34a6 6 0 0 1 6-6h397.85a6 6 0 0 1 6 6v34" fill="#54c45e"/><path d="M-1817.57-1175.65a6 6 0 0 1 6-6h397.85a6 6 0 0 1 6 6v136a6 6 0 0 1-6 6h-397.85a6 6 0 0 1-6-6zM-1817.57-1141.65h409.85M-1757.57-1141.65v108" stroke="#5e5e5e" stroke-width="3" fill="none"/><use xlink:href="#D" transform="matrix(1,0,0,1,-1807.5709941314446,-1181.6462020049848) translate(138.76666666666665 25.333333333333336)"/><use xlink:href="#b" transform="matrix(1,0,0,1,-1812.5709941314446,-1139.1462020049848) translate(13 19.1)"/><use xlink:href="#c" transform="matrix(1,0,0,1,-1752.5709941314446,-1139.1462020049848) translate(11.2 20.833333333333332)"/><use xlink:href="#E" transform="matrix(1,0,0,1,-1752.5709941314446,-1139.1462020049848) translate(35 20.833333333333332)"/><use xlink:href="#F" transform="matrix(1,0,0,1,-1752.5709941314446,-1103.1462020049848) translate(11.2 20.833333333333332)"/><use xlink:href="#q" transform="matrix(1,0,0,1,-1812.5709941314446,-1067.1462020049848) translate(13.524999999999999 19.1)"/><use xlink:href="#c" transform="matrix(1,0,0,1,-1752.5709941314446,-1067.1462020049848) translate(11.2 20.833333333333332)"/><use xlink:href="#d" transform="matrix(1,0,0,1,-1752.5709941314446,-1067.1462020049848) translate(35 20.833333333333332)"/><path d="M-1507.22-563.73a1 1 0 0 0 1-1v-93.42a6 6 0 0 0-6-6h-154.42a6 6 0 0 1-6-6v-14" stroke="#5e5e5e" stroke-width="2" fill="none"/><path d="M-1536.22-553.73v-20M-1546.22-563.73h20M-1506.22-563.73c0 5.52-4.48 10-10 10s-10-4.48-10-10 4.48-10 10-10 10 4.48 10 10M-1682.64-694.15h20M-1672.64-704.15v20M-1682.64-684.15h20" stroke="#5e5e5e" stroke-width="2" fill="#fff"/><path d="M-106.22-783.65h13.5a6 6 0 0 0 6-6v-278a6 6 0 0 0-6-6h-634.5" stroke="#5e5e5e" stroke-width="2" fill="none"/><path d="M-116.22-773.65v-20M-126.22-783.65h20M-106.22-773.65v-20" stroke="#5e5e5e" stroke-width="2" fill="#fff"/><path d="M-765.77-1083.65l20 10-20 10" stroke="#5e5e5e" stroke-width="2" fill="#fff" fill-opacity="0"/><path d="M-765.77-1073.65h20M-725.77-1073.65c0 5.53-4.48 10-10 10-5.53 0-10-4.47-10-10 0-5.52 4.47-10 10-10 5.52 0 10 4.48 10 10" stroke="#5e5e5e" stroke-width="2" fill="#fff"/><path d="M-1858.07-215.65h-135a6 6 0 0 1-6-6v-336.08a6 6 0 0 1 6-6h14" stroke="#5e5e5e" stroke-width="2" fill="none"/><path d="M-1819.52-205.65l-20-10 20-10" stroke="#5e5e5e" stroke-width="2" fill="#fff" fill-opacity="0"/><path d="M-1819.52-215.65h-20M-1839.52-215.65c0 5.53-4.47 10-10 10-5.52 0-10-4.47-10-10 0-5.52 4.48-10 10-10 5.53 0 10 4.48 10 10M-1969.07-573.73v20M-1959.07-563.73h-20M-1979.07-573.73v20" stroke="#5e5e5e" stroke-width="2" fill="#fff"/><path d="M-1118.07-445.38h-148.58a6 6 0 0 1-6-6v-446.27a6 6 0 0 0-6-6h-167.57" stroke="#5e5e5e" stroke-width="2" fill="none"/><path d="M-1079.52-435.38l-20-10 20-10" stroke="#5e5e5e" stroke-width="2" fill="#fff" fill-opacity="0"/><path d="M-1079.52-445.38h-20M-1099.52-445.38c0 5.52-4.47 10-10 10-5.52 0-10-4.48-10-10s4.48-10 10-10c5.53 0 10 4.48 10 10M-1456.22-893.65v-20M-1466.22-903.65h20M-1446.22-893.65v-20" stroke="#5e5e5e" stroke-width="2" fill="#fff"/><path d="M-1118.07-481.47h-203.5a6 6 0 0 1-6-6v-692.25a6 6 0 0 1 6-6h96.5a6 6 0 0 1 6 6v33.07a1 1 0 0 0 1 1" stroke="#5e5e5e" stroke-width="2" fill="none"/><path d="M-1079.52-471.47l-20-10 20-10" stroke="#5e5e5e" stroke-width="2" fill="#fff" fill-opacity="0"/><path d="M-1079.52-481.47h-20M-1099.52-481.47c0 5.53-4.47 10-10 10-5.52 0-10-4.47-10-10 0-5.52 4.48-10 10-10 5.53 0 10 4.48 10 10" stroke="#5e5e5e" stroke-width="2" fill="#fff"/><path d="M-1179.52-1135.65l-20-10 20-10" stroke="#5e5e5e" stroke-width="2" fill="#fff" fill-opacity="0"/><path d="M-1179.52-1145.65h-20M-1199.52-1145.65c0 5.53-4.47 10-10 10-5.52 0-10-4.47-10-10 0-5.52 4.48-10 10-10 5.53 0 10 4.48 10 10" stroke="#5e5e5e" stroke-width="2" fill="#fff"/><path d="M-627.22-517.55h18.58a6 6 0 0 0 6-6v-254.1a6 6 0 0 1 6-6h37.57" stroke="#5e5e5e" stroke-width="2" fill="none"/><path d="M-665.77-527.55l20 10-20 10" stroke="#5e5e5e" stroke-width="2" fill="#fff" fill-opacity="0"/><path d="M-665.77-517.55h20M-625.77-517.55c0 5.52-4.48 10-10 10-5.53 0-10-4.48-10-10 0-5.53 4.47-10 10-10 5.52 0 10 4.47 10 10M-549.07-793.65v20M-539.07-783.65h-20M-559.07-793.65v20" stroke="#5e5e5e" stroke-width="2" fill="#fff"/><path d="M-1367.22-179.65h118.58a6 6 0 0 0 6-6v-434.17a6 6 0 0 1 6-6h118.57" stroke="#5e5e5e" stroke-width="2" fill="none"/><path d="M-1405.77-189.65l20 10-20 10" stroke="#5e5e5e" stroke-width="2" fill="#fff" fill-opacity="0"/><path d="M-1405.77-179.65h20M-1365.77-179.65c0 5.53-4.48 10-10 10-5.53 0-10-4.47-10-10 0-5.52 4.47-10 10-10 5.52 0 10 4.48 10 10" stroke="#5e5e5e" stroke-width="2" fill="#fff"/><path d="M-1079.52-615.82l-20-10 20-10" stroke="#5e5e5e" stroke-width="2" fill="#fff" fill-opacity="0"/><path d="M-1079.52-625.82h-20M-1099.52-625.82c0 5.53-4.47 10-10 10-5.52 0-10-4.47-10-10 0-5.52 4.48-10 10-10 5.53 0 10 4.48 10 10" stroke="#5e5e5e" stroke-width="2" fill="#fff"/><path d="M-1858.07-1051.65h-55a6 6 0 0 0-6 6v136a6 6 0 0 0 6 6h14" stroke="#5e5e5e" stroke-width="2" fill="none"/><path d="M-1819.52-1041.65l-20-10 20-10" stroke="#5e5e5e" stroke-width="2" fill="#fff" fill-opacity="0"/><path d="M-1819.52-1051.65h-20M-1839.52-1051.65c0 5.53-4.47 10-10 10-5.52 0-10-4.47-10-10 0-5.52 4.48-10 10-10 5.53 0 10 4.48 10 10M-1889.07-913.65v20M-1879.07-903.65h-20M-1899.07-913.65v20" stroke="#5e5e5e" stroke-width="2" fill="#fff"/><defs><path fill="#333" d="M232-93c-1 65-40 97-104 97C67 4 28-28 28-90v-158h33c8 89-33 224 67 224 102 0 64-133 71-224h33v155" id="G"/><path fill="#333" d="M135-143c-3-34-86-38-87 0 15 53 115 12 119 90S17 21 10-45l28-5c4 36 97 45 98 0-10-56-113-15-118-90-4-57 82-63 122-42 12 7 21 19 24 35" id="H"/><path fill="#333" d="M100-194c63 0 86 42 84 106H49c0 40 14 67 53 68 26 1 43-12 49-29l28 8c-11 28-37 45-77 45C44 4 14-33 15-96c1-61 26-98 85-98zm52 81c6-60-76-77-97-28-3 7-6 17-6 28h103" id="I"/><path fill="#333" d="M114-163C36-179 61-72 57 0H25l-1-190h30c1 12-1 29 2 39 6-27 23-49 58-41v29" id="J"/><g id="a"><use transform="matrix(0.04938271604938272,0,0,0.04938271604938272,0,0)" xlink:href="#G"/><use transform="matrix(0.04938271604938272,0,0,0.04938271604938272,12.790123456790125,0)" xlink:href="#H"/><use transform="matrix(0.04938271604938272,0,0,0.04938271604938272,21.679012345679013,0)" xlink:href="#I"/><use transform="matrix(0.04938271604938272,0,0,0.04938271604938272,31.555555555555557,0)" xlink:href="#J"/><use transform="matrix(0.04938271604938272,0,0,0.04938271604938272,37.4320987654321,0)" xlink:href="#H"/></g><path fill="#333" d="M30-248c87 1 191-15 191 75 0 78-77 80-158 76V0H30v-248zm33 125c57 0 124 11 124-50 0-59-68-47-124-48v98" id="K"/><path fill="#333" d="M194 0L95-120 63-95V0H30v-248h33v124l119-124h40L117-140 236 0h-42" id="L"/><g id="b"><use transform="matrix(0.05,0,0,0.05,0,0)" xlink:href="#K"/><use transform="matrix(0.05,0,0,0.05,12,0)" xlink:href="#L"/></g><path fill="#333" d="M33 0v-248h34V0H33" id="M"/><path fill="#333" d="M30-248c118-7 216 8 213 122C240-48 200 0 122 0H30v-248zM63-27c89 8 146-16 146-99s-60-101-146-95v194" id="N"/><g id="c"><use transform="matrix(0.05185185185185186,0,0,0.05185185185185186,0,0)" xlink:href="#M"/><use transform="matrix(0.05185185185185186,0,0,0.05185185185185186,5.185185185185186,0)" xlink:href="#N"/></g><g id="d"><use transform="matrix(0.05185185185185186,0,0,0.05185185185185186,0,0)" xlink:href="#G"/><use transform="matrix(0.05185185185185186,0,0,0.05185185185185186,13.42962962962963,0)" xlink:href="#H"/><use transform="matrix(0.05185185185185186,0,0,0.05185185185185186,22.762962962962966,0)" xlink:href="#I"/><use transform="matrix(0.05185185185185186,0,0,0.05185185185185186,33.13333333333334,0)" xlink:href="#J"/></g><path fill="#333" d="M190 0L58-211 59 0H30v-248h39L202-35l-2-213h31V0h-41" id="O"/><path fill="#333" d="M141-36C126-15 110 5 73 4 37 3 15-17 15-53c-1-64 63-63 125-63 3-35-9-54-41-54-24 1-41 7-42 31l-33-3c5-37 33-52 76-52 45 0 72 20 72 64v82c-1 20 7 32 28 27v20c-31 9-61-2-59-35zM48-53c0 20 12 33 32 33 41-3 63-29 60-74-43 2-92-5-92 41" id="P"/><path fill="#333" d="M210-169c-67 3-38 105-44 169h-31v-121c0-29-5-50-35-48C34-165 62-65 56 0H25l-1-190h30c1 10-1 24 2 32 10-44 99-50 107 0 11-21 27-35 58-36 85-2 47 119 55 194h-31v-121c0-29-5-49-35-48" id="Q"/><g id="e"><use transform="matrix(0.05185185185185186,0,0,0.05185185185185186,0,0)" xlink:href="#G"/><use transform="matrix(0.05185185185185186,0,0,0.05185185185185186,13.42962962962963,0)" xlink:href="#H"/><use transform="matrix(0.05185185185185186,0,0,0.05185185185185186,22.762962962962966,0)" xlink:href="#I"/><use transform="matrix(0.05185185185185186,0,0,0.05185185185185186,33.13333333333334,0)" xlink:href="#J"/><use transform="matrix(0.05185185185185186,0,0,0.05185185185185186,39.30370370370371,0)" xlink:href="#O"/><use transform="matrix(0.05185185185185186,0,0,0.05185185185185186,52.73333333333334,0)" xlink:href="#P"/><use transform="matrix(0.05185185185185186,0,0,0.05185185185185186,63.10370370370371,0)" xlink:href="#Q"/><use transform="matrix(0.05185185185185186,0,0,0.05185185185185186,78.60740740740742,0)" xlink:href="#I"/></g><path fill="#333" d="M24-231v-30h32v30H24zM24 0v-190h32V0H24" id="R"/><path fill="#333" d="M24 0v-261h32V0H24" id="S"/><g id="f"><use transform="matrix(0.05185185185185186,0,0,0.05185185185185186,0,0)" xlink:href="#I"/><use transform="matrix(0.05185185185185186,0,0,0.05185185185185186,10.370370370370372,0)" xlink:href="#Q"/><use transform="matrix(0.05185185185185186,0,0,0.05185185185185186,25.874074074074077,0)" xlink:href="#P"/><use transform="matrix(0.05185185185185186,0,0,0.05185185185185186,36.24444444444445,0)" xlink:href="#R"/><use transform="matrix(0.05,0,0,0.05,40.34074074074074,0)" xlink:href="#S"/></g><path fill="#333" d="M206 0h-36l-40-164L89 0H53L-1-190h32L70-26l43-164h34l41 164 42-164h31" id="T"/><path fill="#333" d="M100-194c62-1 85 37 85 99 1 63-27 99-86 99S16-35 15-95c0-66 28-99 85-99zM99-20c44 1 53-31 53-75 0-43-8-75-51-75s-53 32-53 75 10 74 51 75" id="U"/><path fill="#333" d="M85-194c31 0 48 13 60 33l-1-100h32l1 261h-30c-2-10 0-23-3-31C134-8 116 4 85 4 32 4 16-35 15-94c0-66 23-100 70-100zm9 24c-40 0-46 34-46 75 0 40 6 74 45 74 42 0 51-32 51-76 0-42-9-74-50-73" id="V"/><g id="g"><use transform="matrix(0.05185185185185186,0,0,0.05185185185185186,0,0)" xlink:href="#K"/><use transform="matrix(0.05185185185185186,0,0,0.05185185185185186,12.444444444444446,0)" xlink:href="#P"/><use transform="matrix(0.05185185185185186,0,0,0.05185185185185186,22.814814814814817,0)" xlink:href="#H"/><use transform="matrix(0.05185185185185186,0,0,0.05185185185185186,32.14814814814815,0)" xlink:href="#H"/><use transform="matrix(0.05185185185185186,0,0,0.05185185185185186,41.48148148148149,0)" xlink:href="#I"/><use transform="matrix(0.05185185185185186,0,0,0.05185185185185186,51.85185185185186,0)" xlink:href="#T"/><use transform="matrix(0.05185185185185186,0,0,0.05185185185185186,65.28148148148149,0)" xlink:href="#U"/><use transform="matrix(0.05185185185185186,0,0,0.05185185185185186,75.65185185185186,0)" xlink:href="#J"/><use transform="matrix(0.05185185185185186,0,0,0.05185185185185186,81.82222222222222,0)" xlink:href="#V"/></g><path fill="#333" d="M115-194c53 0 69 39 70 98 0 66-23 100-70 100C84 3 66-7 56-30L54 0H23l1-261h32v101c10-23 28-34 59-34zm-8 174c40 0 45-34 45-75 0-40-5-75-45-74-42 0-51 32-51 76 0 43 10 73 51 73" id="W"/><path fill="#333" d="M59-47c-2 24 18 29 38 22v24C64 9 27 4 27-40v-127H5v-23h24l9-43h21v43h35v23H59v120" id="X"/><path fill="#333" d="M106-169C34-169 62-67 57 0H25v-261h32l-1 103c12-21 28-36 61-36 89 0 53 116 60 194h-32v-121c2-32-8-49-39-48" id="Y"/><path fill="#333" d="M179-190L93 31C79 59 56 82 12 73V49c39 6 53-20 64-50L1-190h34L92-34l54-156h33" id="Z"/><g id="h"><use transform="matrix(0.05185185185185186,0,0,0.05185185185185186,0,0)" xlink:href="#W"/><use transform="matrix(0.05185185185185186,0,0,0.05185185185185186,10.370370370370372,0)" xlink:href="#R"/><use transform="matrix(0.05185185185185186,0,0,0.05185185185185186,14.466666666666669,0)" xlink:href="#J"/><use transform="matrix(0.05185185185185186,0,0,0.05185185185185186,20.63703703703704,0)" xlink:href="#X"/><use transform="matrix(0.05185185185185186,0,0,0.05185185185185186,25.822222222222226,0)" xlink:href="#Y"/><use transform="matrix(0.05185185185185186,0,0,0.05185185185185186,36.1925925925926,0)" xlink:href="#V"/><use transform="matrix(0.05185185185185186,0,0,0.05185185185185186,46.56296296296297,0)" xlink:href="#P"/><use transform="matrix(0.05185185185185186,0,0,0.05185185185185186,56.93333333333334,0)" xlink:href="#Z"/></g><g id="i"><use transform="matrix(0.05185185185185186,0,0,0.05185185185185186,0,0)" xlink:href="#P"/><use transform="matrix(0.05185185185185186,0,0,0.05185185185185186,10.370370370370372,0)" xlink:href="#V"/><use transform="matrix(0.05185185185185186,0,0,0.05185185185185186,20.740740740740744,0)" xlink:href="#V"/><use transform="matrix(0.05185185185185186,0,0,0.05185185185185186,31.111111111111114,0)" xlink:href="#J"/><use transform="matrix(0.05185185185185186,0,0,0.05185185185185186,37.281481481481485,0)" xlink:href="#I"/><use transform="matrix(0.05185185185185186,0,0,0.05185185185185186,47.65185185185186,0)" xlink:href="#H"/><use transform="matrix(0.05185185185185186,0,0,0.05185185185185186,56.985185185185195,0)" xlink:href="#H"/></g><path fill="#333" d="M67-125c0 53 21 87 73 88 37 1 54-22 65-47l45 17C233-25 199 4 140 4 58 4 20-42 15-125 8-235 124-281 211-232c18 10 29 29 36 50l-46 12c-8-25-30-41-62-41-52 0-71 34-72 86" id="aa"/><path fill="#333" d="M133-34C117-15 103 5 69 4 32 3 11-16 11-54c-1-60 55-63 116-61 1-26-3-47-28-47-18 1-26 9-28 27l-52-2c7-38 36-58 82-57s74 22 75 68l1 82c-1 14 12 18 25 15v27c-30 8-71 5-69-32zm-48 3c29 0 43-24 42-57-32 0-66-3-65 30 0 17 8 27 23 27" id="ab"/><path fill="#333" d="M115-3C79 11 28 4 28-45v-112H4v-33h27l15-45h31v45h36v33H77v99c-1 23 16 31 38 25v30" id="ac"/><path fill="#333" d="M185-48c-13 30-37 53-82 52C43 2 14-33 14-96s30-98 90-98c62 0 83 45 84 108H66c0 31 8 55 39 56 18 0 30-7 34-22zm-45-69c5-46-57-63-70-21-2 6-4 13-4 21h74" id="ad"/><path fill="#333" d="M195-6C206 82 75 100 31 46c-4-6-6-13-8-21l49-6c3 16 16 24 34 25 40 0 42-37 40-79-11 22-30 35-61 35-53 0-70-43-70-97 0-56 18-96 73-97 30 0 46 14 59 34l2-30h47zm-90-29c32 0 41-27 41-63 0-35-9-62-40-62-32 0-39 29-40 63 0 36 9 62 39 62" id="ae"/><path fill="#333" d="M110-194c64 0 96 36 96 99 0 64-35 99-97 99-61 0-95-36-95-99 0-62 34-99 96-99zm-1 164c35 0 45-28 45-65 0-40-10-65-43-65-34 0-45 26-45 65 0 36 10 65 43 65" id="af"/><path fill="#333" d="M135-150c-39-12-60 13-60 57V0H25l-1-190h47c2 13-1 29 3 40 6-28 27-53 61-41v41" id="ag"/><path fill="#333" d="M25-224v-37h50v37H25zM25 0v-190h50V0H25" id="ah"/><path fill="#333" d="M137-138c1-29-70-34-71-4 15 46 118 7 119 86 1 83-164 76-172 9l43-7c4 19 20 25 44 25 33 8 57-30 24-41C81-84 22-81 20-136c-2-80 154-74 161-7" id="ai"/><g id="j"><use transform="matrix(0.05185185185185186,0,0,0.05185185185185186,0,0)" xlink:href="#aa"/><use transform="matrix(0.05185185185185186,0,0,0.05185185185185186,13.42962962962963,0)" xlink:href="#ab"/><use transform="matrix(0.05185185185185186,0,0,0.05185185185185186,23.800000000000004,0)" xlink:href="#ac"/><use transform="matrix(0.05185185185185186,0,0,0.05185185185185186,29.970370370370375,0)" xlink:href="#ad"/><use transform="matrix(0.05185185185185186,0,0,0.05185185185185186,40.34074074074075,0)" xlink:href="#ae"/><use transform="matrix(0.05185185185185186,0,0,0.05185185185185186,51.6962962962963,0)" xlink:href="#af"/><use transform="matrix(0.05185185185185186,0,0,0.05185185185185186,63.05185185185186,0)" xlink:href="#ag"/><use transform="matrix(0.05185185185185186,0,0,0.05185185185185186,70.31111111111112,0)" xlink:href="#ah"/><use transform="matrix(0.05185185185185186,0,0,0.05185185185185186,75.49629629629631,0)" xlink:href="#ad"/><use transform="matrix(0.05185185185185186,0,0,0.05185185185185186,85.86666666666667,0)" xlink:href="#ai"/></g><path fill="#333" d="M212-179c-10-28-35-45-73-45-59 0-87 40-87 99 0 60 29 101 89 101 43 0 62-24 78-52l27 14C228-24 195 4 139 4 59 4 22-46 18-125c-6-104 99-153 187-111 19 9 31 26 39 46" id="aj"/><path fill="#333" d="M177-190C167-65 218 103 67 71c-23-6-38-20-44-43l32-5c15 47 100 32 89-28v-30C133-14 115 1 83 1 29 1 15-40 15-95c0-56 16-97 71-98 29-1 48 16 59 35 1-10 0-23 2-32h30zM94-22c36 0 50-32 50-73 0-42-14-75-50-75-39 0-46 34-46 75s6 73 46 73" id="ak"/><g id="k"><use transform="matrix(0.05185185185185186,0,0,0.05185185185185186,0,0)" xlink:href="#aj"/><use transform="matrix(0.05185185185185186,0,0,0.05185185185185186,13.42962962962963,0)" xlink:href="#P"/><use transform="matrix(0.05185185185185186,0,0,0.05185185185185186,23.800000000000004,0)" xlink:href="#X"/><use transform="matrix(0.05185185185185186,0,0,0.05185185185185186,28.985185185185188,0)" xlink:href="#I"/><use transform="matrix(0.05185185185185186,0,0,0.05185185185185186,39.35555555555556,0)" xlink:href="#ak"/><use transform="matrix(0.05185185185185186,0,0,0.05185185185185186,49.725925925925935,0)" xlink:href="#U"/><use transform="matrix(0.05185185185185186,0,0,0.05185185185185186,60.096296296296316,0)" xlink:href="#J"/><use transform="matrix(0.05185185185185186,0,0,0.05185185185185186,66.26666666666668,0)" xlink:href="#R"/><use transform="matrix(0.05185185185185186,0,0,0.05185185185185186,70.36296296296298,0)" xlink:href="#I"/></g><g id="l"><use transform="matrix(0.05185185185185186,0,0,0.05185185185185186,0,0)" xlink:href="#aj"/><use transform="matrix(0.05185185185185186,0,0,0.05185185185185186,13.42962962962963,0)" xlink:href="#P"/><use transform="matrix(0.05185185185185186,0,0,0.05185185185185186,23.800000000000004,0)" xlink:href="#X"/><use transform="matrix(0.05185185185185186,0,0,0.05185185185185186,28.985185185185188,0)" xlink:href="#I"/><use transform="matrix(0.05185185185185186,0,0,0.05185185185185186,39.35555555555556,0)" xlink:href="#ak"/><use transform="matrix(0.05185185185185186,0,0,0.05185185185185186,49.725925925925935,0)" xlink:href="#U"/><use transform="matrix(0.05185185185185186,0,0,0.05185185185185186,60.096296296296316,0)" xlink:href="#J"/><use transform="matrix(0.05185185185185186,0,0,0.05185185185185186,66.26666666666668,0)" xlink:href="#R"/><use transform="matrix(0.05185185185185186,0,0,0.05185185185185186,70.36296296296298,0)" xlink:href="#I"/></g><g id="m"><use transform="matrix(0.05185185185185186,0,0,0.05185185185185186,0,0)" xlink:href="#O"/><use transform="matrix(0.05185185185185186,0,0,0.05185185185185186,13.42962962962963,0)" xlink:href="#P"/><use transform="matrix(0.05185185185185186,0,0,0.05185185185185186,23.800000000000004,0)" xlink:href="#Q"/><use transform="matrix(0.05185185185185186,0,0,0.05185185185185186,39.30370370370371,0)" xlink:href="#I"/></g><path fill="#333" d="M169-182c-1-43-94-46-97-3 18 66 151 10 154 114 3 95-165 93-204 36-6-8-10-19-12-30l50-8c3 46 112 56 116 5-17-69-150-10-154-114-4-87 153-88 188-35 5 8 8 18 10 28" id="al"/><path fill="#333" d="M85 4C-2 5 27-109 22-190h50c7 57-23 150 33 157 60-5 35-97 40-157h50l1 190h-47c-2-12 1-28-3-38-12 25-28 42-61 42" id="am"/><path fill="#333" d="M135-194c52 0 70 43 70 98 0 56-19 99-73 100-30 1-46-15-58-35L72 0H24l1-261h50v104c11-23 29-37 60-37zM114-30c31 0 40-27 40-66 0-37-7-63-39-63s-41 28-41 65c0 36 8 64 40 64" id="an"/><path fill="#333" d="M14-72v-43h91v43H14" id="ao"/><g id="n"><use transform="matrix(0.05185185185185186,0,0,0.05185185185185186,0,0)" xlink:href="#al"/><use transform="matrix(0.05185185185185186,0,0,0.05185185185185186,12.444444444444446,0)" xlink:href="#am"/><use transform="matrix(0.05185185185185186,0,0,0.05185185185185186,23.800000000000004,0)" xlink:href="#an"/><use transform="matrix(0.05185185185185186,0,0,0.05185185185185186,35.15555555555556,0)" xlink:href="#ao"/><use transform="matrix(0.05185185185185186,0,0,0.05185185185185186,41.32592592592593,0)" xlink:href="#aa"/><use transform="matrix(0.05185185185185186,0,0,0.05185185185185186,54.75555555555556,0)" xlink:href="#ab"/><use transform="matrix(0.05185185185185186,0,0,0.05185185185185186,65.12592592592593,0)" xlink:href="#ac"/><use transform="matrix(0.05185185185185186,0,0,0.05185185185185186,71.2962962962963,0)" xlink:href="#ad"/><use transform="matrix(0.05185185185185186,0,0,0.05185185185185186,81.66666666666667,0)" xlink:href="#ae"/><use transform="matrix(0.05185185185185186,0,0,0.05185185185185186,93.02222222222223,0)" xlink:href="#af"/><use transform="matrix(0.05185185185185186,0,0,0.05185185185185186,104.37777777777778,0)" xlink:href="#ag"/><use transform="matrix(0.05185185185185186,0,0,0.05185185185185186,111.63703703703705,0)" xlink:href="#ah"/><use transform="matrix(0.05185185185185186,0,0,0.05185185185185186,116.82222222222224,0)" xlink:href="#ad"/><use transform="matrix(0.05185185185185186,0,0,0.05185185185185186,127.1925925925926,0)" xlink:href="#ai"/></g><path fill="#333" d="M185-189c-5-48-123-54-124 2 14 75 158 14 163 119 3 78-121 87-175 55-17-10-28-26-33-46l33-7c5 56 141 63 141-1 0-78-155-14-162-118-5-82 145-84 179-34 5 7 8 16 11 25" id="ap"/><path fill="#333" d="M84 4C-5 8 30-112 23-190h32v120c0 31 7 50 39 49 72-2 45-101 50-169h31l1 190h-30c-1-10 1-25-2-33-11 22-28 36-60 37" id="aq"/><path fill="#333" d="M16-82v-28h88v28H16" id="ar"/><g id="o"><use transform="matrix(0.05185185185185186,0,0,0.05185185185185186,0,0)" xlink:href="#ap"/><use transform="matrix(0.05185185185185186,0,0,0.05185185185185186,12.444444444444446,0)" xlink:href="#aq"/><use transform="matrix(0.05185185185185186,0,0,0.05185185185185186,22.814814814814817,0)" xlink:href="#W"/><use transform="matrix(0.05185185185185186,0,0,0.05185185185185186,33.18518518518519,0)" xlink:href="#ar"/><use transform="matrix(0.05185185185185186,0,0,0.05185185185185186,39.35555555555556,0)" xlink:href="#aj"/><use transform="matrix(0.05185185185185186,0,0,0.05185185185185186,52.78518518518519,0)" xlink:href="#P"/><use transform="matrix(0.05185185185185186,0,0,0.05185185185185186,63.155555555555566,0)" xlink:href="#X"/><use transform="matrix(0.05185185185185186,0,0,0.05185185185185186,68.34074074074076,0)" xlink:href="#I"/><use transform="matrix(0.05185185185185186,0,0,0.05185185185185186,78.71111111111112,0)" xlink:href="#ak"/><use transform="matrix(0.05185185185185186,0,0,0.05185185185185186,89.08148148148149,0)" xlink:href="#U"/><use transform="matrix(0.05185185185185186,0,0,0.05185185185185186,99.45185185185186,0)" xlink:href="#J"/><use transform="matrix(0.05185185185185186,0,0,0.05185185185185186,105.62222222222223,0)" xlink:href="#R"/><use transform="matrix(0.05185185185185186,0,0,0.05185185185185186,109.71851851851854,0)" xlink:href="#I"/></g><path fill="#333" d="M100-194c63 0 86 42 84 106H49c0 40 14 67 53 68 26 1 43-12 49-29l28 8c-11 28-37 45-77 45C44 4 14-33 15-96c1-61 26-98 85-98zm52 81c6-60-76-77-97-28-3 7-6 17-6 28h103zm-74-98c8-23 27-35 38-54h36v5l-58 49H78" id="as"/><g id="p"><use transform="matrix(0.05185185185185186,0,0,0.05185185185185186,0,0)" xlink:href="#ap"/><use transform="matrix(0.05185185185185186,0,0,0.05185185185185186,12.444444444444446,0)" xlink:href="#U"/><use transform="matrix(0.05185185185185186,0,0,0.05185185185185186,22.814814814814817,0)" xlink:href="#aq"/><use transform="matrix(0.05185185185185186,0,0,0.05185185185185186,33.18518518518519,0)" xlink:href="#H"/><use transform="matrix(0.05185185185185186,0,0,0.05185185185185186,42.518518518518526,0)" xlink:href="#ar"/><use transform="matrix(0.05185185185185186,0,0,0.05185185185185186,48.6888888888889,0)" xlink:href="#aj"/><use transform="matrix(0.05185185185185186,0,0,0.05185185185185186,62.11851851851853,0)" xlink:href="#P"/><use transform="matrix(0.05185185185185186,0,0,0.05185185185185186,72.4888888888889,0)" xlink:href="#X"/><use transform="matrix(0.05185185185185186,0,0,0.05185185185185186,77.67407407407408,0)" xlink:href="#as"/><use transform="matrix(0.05185185185185186,0,0,0.05185185185185186,88.04444444444445,0)" xlink:href="#ak"/><use transform="matrix(0.05185185185185186,0,0,0.05185185185185186,98.41481481481482,0)" xlink:href="#U"/><use transform="matrix(0.05185185185185186,0,0,0.05185185185185186,108.78518518518517,0)" xlink:href="#J"/><use transform="matrix(0.05185185185185186,0,0,0.05185185185185186,114.95555555555555,0)" xlink:href="#Z"/><use transform="matrix(0.05185185185185186,0,0,0.05185185185185186,124.28888888888888,0)" xlink:href="#O"/><use transform="matrix(0.05185185185185186,0,0,0.05185185185185186,137.71851851851852,0)" xlink:href="#P"/><use transform="matrix(0.05185185185185186,0,0,0.05185185185185186,148.0888888888889,0)" xlink:href="#Q"/><use transform="matrix(0.05185185185185186,0,0,0.05185185185185186,163.5925925925926,0)" xlink:href="#I"/></g><path fill="#333" d="M63-220v92h138v28H63V0H30v-248h175v28H63" id="at"/><g id="q"><use transform="matrix(0.05,0,0,0.05,0,0)" xlink:href="#at"/><use transform="matrix(0.05,0,0,0.05,10.950000000000001,0)" xlink:href="#L"/></g><path fill="#333" d="M24-248c93 1 206-16 204 79-1 75-69 88-152 82V0H24v-248zm52 121c47 0 100 7 100-41 0-47-54-39-100-39v80" id="au"/><path fill="#333" d="M25-224v-37h50v37H25zM75 22c2 45-34 59-81 51V38c22 5 31-5 31-27v-201h50V22" id="av"/><path fill="#333" d="M190-63c-7 42-38 67-86 67-59 0-84-38-90-98-12-110 154-137 174-36l-49 2c-2-19-15-32-35-32-30 0-35 28-38 64-6 74 65 87 74 30" id="aw"/><g id="r"><use transform="matrix(0.05185185185185186,0,0,0.05185185185185186,0,0)" xlink:href="#au"/><use transform="matrix(0.05185185185185186,0,0,0.05185185185185186,12.444444444444446,0)" xlink:href="#ag"/><use transform="matrix(0.05185185185185186,0,0,0.05185185185185186,19.703703703703706,0)" xlink:href="#af"/><use transform="matrix(0.05185185185185186,0,0,0.05185185185185186,31.059259259259264,0)" xlink:href="#av"/><use transform="matrix(0.05185185185185186,0,0,0.05185185185185186,36.24444444444445,0)" xlink:href="#ad"/><use transform="matrix(0.05185185185185186,0,0,0.05185185185185186,46.61481481481482,0)" xlink:href="#aw"/><use transform="matrix(0.05185185185185186,0,0,0.05185185185185186,56.985185185185195,0)" xlink:href="#ac"/><use transform="matrix(0.05185185185185186,0,0,0.05185185185185186,63.155555555555566,0)" xlink:href="#ai"/></g><path fill="#333" d="M24-231v-30h32v30H24zM-9 49c24 4 33-6 33-30v-209h32V24c2 40-23 58-65 49V49" id="ax"/><path fill="#333" d="M96-169c-40 0-48 33-48 73s9 75 48 75c24 0 41-14 43-38l32 2c-6 37-31 61-74 61-59 0-76-41-82-99-10-93 101-131 147-64 4 7 5 14 7 22l-32 3c-4-21-16-35-41-35" id="ay"/><g id="s"><use transform="matrix(0.05185185185185186,0,0,0.05185185185185186,0,0)" xlink:href="#K"/><use transform="matrix(0.05185185185185186,0,0,0.05185185185185186,12.444444444444446,0)" xlink:href="#J"/><use transform="matrix(0.05185185185185186,0,0,0.05185185185185186,18.614814814814817,0)" xlink:href="#U"/><use transform="matrix(0.05185185185185186,0,0,0.05185185185185186,28.985185185185188,0)" xlink:href="#ax"/><use transform="matrix(0.05185185185185186,0,0,0.05185185185185186,33.08148148148148,0)" xlink:href="#I"/><use transform="matrix(0.05185185185185186,0,0,0.05185185185185186,43.451851851851856,0)" xlink:href="#ay"/><use transform="matrix(0.05185185185185186,0,0,0.05185185185185186,52.78518518518519,0)" xlink:href="#X"/></g><g id="t"><use transform="matrix(0.05185185185185186,0,0,0.05185185185185186,0,0)" xlink:href="#X"/><use transform="matrix(0.05185185185185186,0,0,0.05185185185185186,5.185185185185186,0)" xlink:href="#R"/><use transform="matrix(0.05185185185185186,0,0,0.05185185185185186,9.281481481481482,0)" xlink:href="#X"/><use transform="matrix(0.05185185185185186,0,0,0.05185185185185186,14.466666666666669,0)" xlink:href="#S"/><use transform="matrix(0.05185185185185186,0,0,0.05185185185185186,18.562962962962963,0)" xlink:href="#I"/></g><path fill="#333" d="M115-194c55 1 70 41 70 98S169 2 115 4C84 4 66-9 55-30l1 105H24l-1-265h31l2 30c10-21 28-34 59-34zm-8 174c40 0 45-34 45-75s-6-73-45-74c-42 0-51 32-51 76 0 43 10 73 51 73" id="az"/><path fill="#333" d="M117-194c89-4 53 116 60 194h-32v-121c0-31-8-49-39-48C34-167 62-67 57 0H25l-1-190h30c1 10-1 24 2 32 11-22 29-35 61-36" id="aA"/><g id="u"><use transform="matrix(0.05185185185185186,0,0,0.05185185185185186,0,0)" xlink:href="#N"/><use transform="matrix(0.05185185185185186,0,0,0.05185185185185186,13.42962962962963,0)" xlink:href="#I"/><use transform="matrix(0.05185185185185186,0,0,0.05185185185185186,23.800000000000004,0)" xlink:href="#H"/><use transform="matrix(0.05185185185185186,0,0,0.05185185185185186,33.13333333333334,0)" xlink:href="#ay"/><use transform="matrix(0.05185185185185186,0,0,0.05185185185185186,42.466666666666676,0)" xlink:href="#J"/><use transform="matrix(0.05185185185185186,0,0,0.05185185185185186,48.63703703703705,0)" xlink:href="#R"/><use transform="matrix(0.05185185185185186,0,0,0.05185185185185186,52.73333333333334,0)" xlink:href="#az"/><use transform="matrix(0.05185185185185186,0,0,0.05185185185185186,63.10370370370371,0)" xlink:href="#X"/><use transform="matrix(0.05185185185185186,0,0,0.05185185185185186,68.2888888888889,0)" xlink:href="#R"/><use transform="matrix(0.05185185185185186,0,0,0.05185185185185186,72.38518518518521,0)" xlink:href="#U"/><use transform="matrix(0.05185185185185186,0,0,0.05185185185185186,82.75555555555557,0)" xlink:href="#aA"/></g><path fill="#333" d="M76-208v77h127v40H76V0H24v-248h183v40H76" id="aB"/><path fill="#333" d="M25 0v-261h50V0H25" id="aC"/><path fill="#333" d="M135-194c87-1 58 113 63 194h-50c-7-57 23-157-34-157-59 0-34 97-39 157H25l-1-190h47c2 12-1 28 3 38 12-26 28-41 61-42" id="aD"/><g id="v"><use transform="matrix(0.05185185185185186,0,0,0.05185185185185186,0,0)" xlink:href="#aB"/><use transform="matrix(0.05185185185185186,0,0,0.05185185185185186,11.355555555555556,0)" xlink:href="#ag"/><use transform="matrix(0.05185185185185186,0,0,0.05185185185185186,18.614814814814817,0)" xlink:href="#ad"/><use transform="matrix(0.05185185185185186,0,0,0.05185185185185186,28.985185185185188,0)" xlink:href="#ad"/><use transform="matrix(0.05185185185185186,0,0,0.05185185185185186,39.35555555555556,0)" xlink:href="#aC"/><use transform="matrix(0.05185185185185186,0,0,0.05185185185185186,44.540740740740745,0)" xlink:href="#ab"/><use transform="matrix(0.05185185185185186,0,0,0.05185185185185186,54.91111111111112,0)" xlink:href="#aD"/><use transform="matrix(0.05185185185185186,0,0,0.05185185185185186,66.26666666666668,0)" xlink:href="#aw"/><use transform="matrix(0.05185185185185186,0,0,0.05185185185185186,76.63703703703705,0)" xlink:href="#ad"/><use transform="matrix(0.05185185185185186,0,0,0.05185185185185186,87.00740740740741,0)" xlink:href="#ai"/></g><g id="w"><use transform="matrix(0.05185185185185186,0,0,0.05185185185185186,0,0)" xlink:href="#at"/><use transform="matrix(0.05185185185185186,0,0,0.05185185185185186,11.355555555555556,0)" xlink:href="#J"/><use transform="matrix(0.05185185185185186,0,0,0.05185185185185186,17.525925925925925,0)" xlink:href="#I"/><use transform="matrix(0.05185185185185186,0,0,0.05185185185185186,27.8962962962963,0)" xlink:href="#I"/><use transform="matrix(0.05185185185185186,0,0,0.05185185185185186,38.26666666666667,0)" xlink:href="#S"/><use transform="matrix(0.05185185185185186,0,0,0.05185185185185186,42.36296296296297,0)" xlink:href="#P"/><use transform="matrix(0.05185185185185186,0,0,0.05185185185185186,52.73333333333334,0)" xlink:href="#aA"/><use transform="matrix(0.05185185185185186,0,0,0.05185185185185186,63.10370370370371,0)" xlink:href="#ay"/><use transform="matrix(0.05185185185185186,0,0,0.05185185185185186,72.43703703703704,0)" xlink:href="#I"/></g><g id="x"><use transform="matrix(0.05185185185185186,0,0,0.05185185185185186,0,0)" xlink:href="#at"/><use transform="matrix(0.05185185185185186,0,0,0.05185185185185186,11.355555555555556,0)" xlink:href="#J"/><use transform="matrix(0.05185185185185186,0,0,0.05185185185185186,17.525925925925925,0)" xlink:href="#I"/><use transform="matrix(0.05185185185185186,0,0,0.05185185185185186,27.8962962962963,0)" xlink:href="#I"/><use transform="matrix(0.05185185185185186,0,0,0.05185185185185186,38.26666666666667,0)" xlink:href="#S"/><use transform="matrix(0.05185185185185186,0,0,0.05185185185185186,42.36296296296297,0)" xlink:href="#P"/><use transform="matrix(0.05185185185185186,0,0,0.05185185185185186,52.73333333333334,0)" xlink:href="#aA"/><use transform="matrix(0.05185185185185186,0,0,0.05185185185185186,63.10370370370371,0)" xlink:href="#ay"/><use transform="matrix(0.05185185185185186,0,0,0.05185185185185186,72.43703703703704,0)" xlink:href="#I"/><use transform="matrix(0.05185185185185186,0,0,0.05185185185185186,82.80740740740741,0)" xlink:href="#J"/></g><path fill="#333" d="M30 0v-248h33v221h125V0H30" id="aE"/><g id="y"><use transform="matrix(0.05185185185185186,0,0,0.05185185185185186,0,0)" xlink:href="#ap"/><use transform="matrix(0.05185185185185186,0,0,0.05185185185185186,12.444444444444446,0)" xlink:href="#L"/><use transform="matrix(0.05185185185185186,0,0,0.05185185185185186,24.888888888888893,0)" xlink:href="#M"/><use transform="matrix(0.05185185185185186,0,0,0.05185185185185186,30.074074074074076,0)" xlink:href="#aE"/><use transform="matrix(0.05185185185185186,0,0,0.05185185185185186,40.44444444444445,0)" xlink:href="#aE"/><use transform="matrix(0.05185185185185186,0,0,0.05185185185185186,50.814814814814824,0)" xlink:href="#ap"/></g><path fill="#333" d="M140-251c80 0 125 45 125 126S219 4 139 4C58 4 15-44 15-125s44-126 125-126zm-1 214c52 0 73-35 73-88 0-50-21-86-72-86-52 0-73 35-73 86s22 88 72 88" id="aF"/><path fill="#333" d="M121-226c-27-7-43 5-38 36h38v33H83V0H34v-157H6v-33h28c-9-59 32-81 87-68v32" id="aG"/><g id="z"><use transform="matrix(0.05185185185185186,0,0,0.05185185185185186,0,0)" xlink:href="#aF"/><use transform="matrix(0.05185185185185186,0,0,0.05185185185185186,14.51851851851852,0)" xlink:href="#aG"/><use transform="matrix(0.05185185185185186,0,0,0.05185185185185186,20.68888888888889,0)" xlink:href="#aG"/><use transform="matrix(0.05185185185185186,0,0,0.05185185185185186,26.85925925925926,0)" xlink:href="#ad"/><use transform="matrix(0.05185185185185186,0,0,0.05185185185185186,37.229629629629635,0)" xlink:href="#ag"/><use transform="matrix(0.05185185185185186,0,0,0.05185185185185186,44.488888888888894,0)" xlink:href="#ai"/></g><path fill="#333" d="M140-251c81 0 123 46 123 126C263-46 219 4 140 4 59 4 17-45 17-125s42-126 123-126zm0 227c63 0 89-41 89-101s-29-99-89-99c-61 0-89 39-89 99S79-25 140-24" id="aH"/><path fill="#333" d="M101-234c-31-9-42 10-38 44h38v23H63V0H32v-167H5v-23h27c-7-52 17-82 69-68v24" id="aI"/><g id="A"><use transform="matrix(0.05185185185185186,0,0,0.05185185185185186,0,0)" xlink:href="#aH"/><use transform="matrix(0.05185185185185186,0,0,0.05185185185185186,14.51851851851852,0)" xlink:href="#aI"/><use transform="matrix(0.05185185185185186,0,0,0.05185185185185186,19.340740740740745,0)" xlink:href="#aI"/><use transform="matrix(0.05185185185185186,0,0,0.05185185185185186,24.525925925925932,0)" xlink:href="#I"/><use transform="matrix(0.05185185185185186,0,0,0.05185185185185186,34.896296296296306,0)" xlink:href="#J"/></g><path fill="#333" d="M205 0l-28-72H64L36 0H1l101-248h38L239 0h-34zm-38-99l-47-123c-12 45-31 82-46 123h93" id="aJ"/><g id="B"><use transform="matrix(0.05185185185185186,0,0,0.05185185185185186,0,0)" xlink:href="#aJ"/><use transform="matrix(0.05185185185185186,0,0,0.05185185185185186,12.444444444444446,0)" xlink:href="#Q"/><use transform="matrix(0.05185185185185186,0,0,0.05185185185185186,27.94814814814815,0)" xlink:href="#U"/><use transform="matrix(0.05185185185185186,0,0,0.05185185185185186,38.31851851851852,0)" xlink:href="#aq"/><use transform="matrix(0.05185185185185186,0,0,0.05185185185185186,48.6888888888889,0)" xlink:href="#aA"/><use transform="matrix(0.05185185185185186,0,0,0.05185185185185186,59.059259259259264,0)" xlink:href="#X"/></g><g id="C"><use transform="matrix(0.05185185185185186,0,0,0.05185185185185186,0,0)" xlink:href="#N"/><use transform="matrix(0.05185185185185186,0,0,0.05185185185185186,13.42962962962963,0)" xlink:href="#I"/><use transform="matrix(0.05185185185185186,0,0,0.05185185185185186,23.800000000000004,0)" xlink:href="#P"/><use transform="matrix(0.05185185185185186,0,0,0.05185185185185186,34.17037037037038,0)" xlink:href="#V"/><use transform="matrix(0.05185185185185186,0,0,0.05185185185185186,44.54074074074075,0)" xlink:href="#S"/><use transform="matrix(0.05185185185185186,0,0,0.05185185185185186,48.63703703703705,0)" xlink:href="#R"/><use transform="matrix(0.05185185185185186,0,0,0.05185185185185186,52.73333333333334,0)" xlink:href="#aA"/><use transform="matrix(0.05185185185185186,0,0,0.05185185185185186,63.10370370370371,0)" xlink:href="#I"/></g><path fill="#333" d="M136-208V0H84v-208H4v-40h212v40h-80" id="aK"/><path fill="#333" d="M220-157c-53 9-28 100-34 157h-49v-107c1-27-5-49-29-50C55-147 81-57 75 0H25l-1-190h47c2 12-1 28 3 38 10-53 101-56 108 0 13-22 24-43 59-42 82 1 51 116 57 194h-49v-107c-1-25-5-48-29-50" id="aL"/><g id="D"><use transform="matrix(0.05185185185185186,0,0,0.05185185185185186,0,0)" xlink:href="#aK"/><use transform="matrix(0.05185185185185186,0,0,0.05185185185185186,9.955555555555556,0)" xlink:href="#ad"/><use transform="matrix(0.05185185185185186,0,0,0.05185185185185186,20.32592592592593,0)" xlink:href="#ai"/><use transform="matrix(0.05185185185185186,0,0,0.05185185185185186,30.696296296296307,0)" xlink:href="#ac"/><use transform="matrix(0.05185185185185186,0,0,0.05185185185185186,36.866666666666674,0)" xlink:href="#ah"/><use transform="matrix(0.05185185185185186,0,0,0.05185185185185186,42.05185185185186,0)" xlink:href="#aL"/><use transform="matrix(0.05185185185185186,0,0,0.05185185185185186,58.64444444444445,0)" xlink:href="#af"/><use transform="matrix(0.05185185185185186,0,0,0.05185185185185186,70.00000000000001,0)" xlink:href="#aD"/><use transform="matrix(0.05185185185185186,0,0,0.05185185185185186,81.35555555555557,0)" xlink:href="#ah"/><use transform="matrix(0.05185185185185186,0,0,0.05185185185185186,86.54074074074076,0)" xlink:href="#ab"/><use transform="matrix(0.05185185185185186,0,0,0.05185185185185186,96.91111111111113,0)" xlink:href="#aC"/><use transform="matrix(0.05185185185185186,0,0,0.05185185185185186,102.09629629629632,0)" xlink:href="#ai"/></g><path fill="#333" d="M127-220V0H93v-220H8v-28h204v28h-85" id="aM"/><g id="E"><use transform="matrix(0.05185185185185186,0,0,0.05185185185185186,0,0)" xlink:href="#aM"/><use transform="matrix(0.05185185185185186,0,0,0.05185185185185186,9.281481481481482,0)" xlink:href="#I"/><use transform="matrix(0.05185185185185186,0,0,0.05185185185185186,19.651851851851852,0)" xlink:href="#H"/><use transform="matrix(0.05185185185185186,0,0,0.05185185185185186,28.985185185185188,0)" xlink:href="#X"/><use transform="matrix(0.05185185185185186,0,0,0.05185185185185186,34.17037037037037,0)" xlink:href="#R"/><use transform="matrix(0.05185185185185186,0,0,0.05185185185185186,38.266666666666666,0)" xlink:href="#Q"/><use transform="matrix(0.05185185185185186,0,0,0.05185185185185186,53.77037037037038,0)" xlink:href="#U"/><use transform="matrix(0.05185185185185186,0,0,0.05185185185185186,64.14074074074074,0)" xlink:href="#aA"/><use transform="matrix(0.05185185185185186,0,0,0.05185185185185186,74.5111111111111,0)" xlink:href="#R"/><use transform="matrix(0.05185185185185186,0,0,0.05185185185185186,78.60740740740741,0)" xlink:href="#P"/><use transform="matrix(0.05185185185185186,0,0,0.05185185185185186,88.97777777777777,0)" xlink:href="#S"/></g><g id="F"><use transform="matrix(0.05185185185185186,0,0,0.05185185185185186,0,0)" xlink:href="#aj"/><use transform="matrix(0.05185185185185186,0,0,0.05185185185185186,13.42962962962963,0)" xlink:href="#U"/><use transform="matrix(0.05185185185185186,0,0,0.05185185185185186,23.800000000000004,0)" xlink:href="#Q"/><use transform="matrix(0.05185185185185186,0,0,0.05185185185185186,39.30370370370371,0)" xlink:href="#Q"/><use transform="matrix(0.05185185185185186,0,0,0.05185185185185186,54.80740740740741,0)" xlink:href="#I"/><use transform="matrix(0.05185185185185186,0,0,0.05185185185185186,65.17777777777779,0)" xlink:href="#aA"/><use transform="matrix(0.05185185185185186,0,0,0.05185185185185186,75.54814814814816,0)" xlink:href="#X"/><use transform="matrix(0.05185185185185186,0,0,0.05185185185185186,80.73333333333335,0)" xlink:href="#P"/><use transform="matrix(0.05185185185185186,0,0,0.05185185185185186,91.10370370370372,0)" xlink:href="#R"/><use transform="matrix(0.05185185185185186,0,0,0.05185185185185186,95.20000000000002,0)" xlink:href="#J"/><use transform="matrix(0.05185185185185186,0,0,0.05185185185185186,101.37037037037038,0)" xlink:href="#I"/></g></defs></g></svg>